<?xml version="1.0" encoding="UTF-8" standalone="no"?>
<!DOCTYPE svg PUBLIC "-//W3C//DTD SVG 1.1//EN"
 "http://www.w3.org/Graphics/SVG/1.1/DTD/svg11.dtd">
<!-- Generated by graphviz version 2.43.0 (0)
 -->
<!-- Title: %3 Pages: 1 -->
<svg width="387pt" height="97pt"
 viewBox="0.00 0.00 387.00 97.00" xmlns="http://www.w3.org/2000/svg" xmlns:xlink="http://www.w3.org/1999/xlink">
<g id="graph0" class="graph" transform="scale(1 1) rotate(0) translate(4 93)">
<title>%3</title>
<polygon fill="white" stroke="transparent" points="-4,4 -4,-93 383,-93 383,4 -4,4"/>
<!-- 2 -->
<g id="node1" class="node">
<title>2</title>
<ellipse fill="transparent" stroke="black" cx="197" cy="-71" rx="18" ry="18"/>
<text text-anchor="middle" x="197" y="-67.3" font-family="Times,serif" font-size="14.00">c</text>
</g>
<!-- e -->
<g id="node4" class="node">
<title>e</title>
<ellipse fill="none" stroke="black" cx="353.5" cy="-45" rx="21.5" ry="21.5"/>
<ellipse fill="none" stroke="black" cx="353.5" cy="-45" rx="25.5" ry="25.5"/>
<text text-anchor="middle" x="353.5" y="-41.3" font-family="Times,serif" font-size="14.00">&lt;/s&gt;</text>
</g>
<!-- 2&#45;&gt;e -->
<g id="edge3" class="edge">
<title>2&#45;&gt;e</title>
<path fill="none" stroke="black" d="M214.83,-68.17C239.53,-64.01 286.14,-56.17 318.23,-50.77"/>
<polygon fill="black" stroke="black" points="318.81,-54.22 328.09,-49.11 317.65,-47.32 318.81,-54.22"/>
<text text-anchor="middle" x="251" y="-67.8" font-family="Times,serif" font-size="14.00">0.0</text>
</g>
<!-- 3 -->
<g id="node2" class="node">
<title>3</title>
<ellipse fill="transparent" stroke="black" cx="251" cy="-18" rx="18" ry="18"/>
<text text-anchor="middle" x="251" y="-14.3" font-family="Times,serif" font-size="14.00">b</text>
</g>
<!-- 3&#45;&gt;e -->
<g id="edge5" class="edge">
<title>3&#45;&gt;e</title>
<path fill="none" stroke="black" d="M268.6,-22.46C282.17,-26.11 301.81,-31.38 318.67,-35.91"/>
<polygon fill="black" stroke="black" points="318.17,-39.4 328.73,-38.62 319.99,-32.64 318.17,-39.4"/>
<text text-anchor="middle" x="298.5" y="-36.8" font-family="Times,serif" font-size="14.00">0.0</text>
</g>
<!-- s -->
<g id="node3" class="node">
<title>s</title>
<ellipse fill="none" stroke="black" stroke-width="2" cx="21.5" cy="-44" rx="21.5" ry="21.5"/>
<text text-anchor="middle" x="21.5" y="-40.3" font-family="Times,serif" font-size="14.00">&lt;s&gt;</text>
</g>
<!-- s&#45;&gt;2 -->
<g id="edge2" class="edge">
<title>s&#45;&gt;2</title>
<path fill="none" stroke="black" d="M43.08,-47.2C74.48,-52.09 134.36,-61.41 169.14,-66.82"/>
<polygon fill="black" stroke="black" points="168.65,-70.29 179.07,-68.37 169.73,-63.37 168.65,-70.29"/>
<text text-anchor="middle" x="84" y="-59.8" font-family="Times,serif" font-size="14.00">&#45;0.693</text>
</g>
<!-- 1 -->
<g id="node5" class="node">
<title>1</title>
<ellipse fill="transparent" stroke="black" cx="143" cy="-21" rx="18" ry="18"/>
<text text-anchor="middle" x="143" y="-17.3" font-family="Times,serif" font-size="14.00">a</text>
</g>
<!-- s&#45;&gt;1 -->
<g id="edge1" class="edge">
<title>s&#45;&gt;1</title>
<path fill="none" stroke="black" d="M41.81,-35.96C47.86,-33.72 54.63,-31.49 61,-30 78.57,-25.89 98.75,-23.64 114.56,-22.42"/>
<polygon fill="black" stroke="black" points="114.99,-25.9 124.73,-21.73 114.52,-18.91 114.99,-25.9"/>
<text text-anchor="middle" x="84" y="-33.8" font-family="Times,serif" font-size="14.00">&#45;0.693</text>
</g>
<!-- 1&#45;&gt;3 -->
<g id="edge4" class="edge">
<title>1&#45;&gt;3</title>
<path fill="none" stroke="black" d="M161.03,-20.52C177.62,-20.05 203.12,-19.33 222.57,-18.78"/>
<polygon fill="black" stroke="black" points="222.76,-22.27 232.66,-18.49 222.56,-15.28 222.76,-22.27"/>
<text text-anchor="middle" x="197" y="-23.8" font-family="Times,serif" font-size="14.00">0.0</text>
</g>
</g>
</svg>
