<?xml version="1.0" encoding="UTF-8" standalone="no"?>
<!DOCTYPE svg PUBLIC "-//W3C//DTD SVG 1.1//EN"
 "http://www.w3.org/Graphics/SVG/1.1/DTD/svg11.dtd">
<!-- Generated by graphviz version 2.43.0 (0)
 -->
<!-- Title: %3 Pages: 1 -->
<svg width="1031pt" height="114pt"
 viewBox="0.00 0.00 1030.78 113.55" xmlns="http://www.w3.org/2000/svg" xmlns:xlink="http://www.w3.org/1999/xlink">
<g id="graph0" class="graph" transform="scale(1 1) rotate(0) translate(4 109.55)">
<title>%3</title>
<polygon fill="white" stroke="transparent" points="-4,4 -4,-109.55 1026.78,-109.55 1026.78,4 -4,4"/>
<!-- 2 -->
<g id="node1" class="node">
<title>2</title>
<ellipse fill="transparent" stroke="black" cx="474.19" cy="-25.45" rx="18" ry="18"/>
<text text-anchor="middle" x="474.19" y="-21.75" font-family="Times,serif" font-size="14.00">c</text>
</g>
<!-- e -->
<g id="node3" class="node">
<title>e</title>
<ellipse fill="none" stroke="black" cx="997.28" cy="-42.45" rx="21.5" ry="21.5"/>
<ellipse fill="none" stroke="black" cx="997.28" cy="-42.45" rx="25.5" ry="25.5"/>
<text text-anchor="middle" x="997.28" y="-38.75" font-family="Times,serif" font-size="14.00">&lt;/s&gt;</text>
</g>
<!-- 2&#45;&gt;e -->
<g id="edge15" class="edge">
<title>2&#45;&gt;e</title>
<path fill="none" stroke="black" d="M492.44,-25.73C512.29,-26.02 545.84,-26.45 574.69,-26.45 574.69,-26.45 574.69,-26.45 895.78,-26.45 918.09,-26.45 942.85,-30.34 962.21,-34.29"/>
<polygon fill="black" stroke="black" points="961.57,-37.73 972.08,-36.4 963.04,-30.89 961.57,-37.73"/>
<text text-anchor="middle" x="690.54" y="-30.25" font-family="Times,serif" font-size="14.00">0.0</text>
</g>
<!-- 11 -->
<g id="node2" class="node">
<title>11</title>
<ellipse fill="lightblue" stroke="black" cx="312.89" cy="-83.45" rx="22.2" ry="22.2"/>
<text text-anchor="middle" x="312.89" y="-79.75" font-family="Times,serif" font-size="14.00">a2</text>
</g>
<!-- 12 -->
<g id="node14" class="node">
<title>12</title>
<ellipse fill="lightblue" stroke="black" cx="416.09" cy="-82.45" rx="22.2" ry="22.2"/>
<text text-anchor="middle" x="416.09" y="-78.75" font-family="Times,serif" font-size="14.00">a3</text>
</g>
<!-- 11&#45;&gt;12 -->
<g id="edge5" class="edge">
<title>11&#45;&gt;12</title>
<path fill="none" stroke="black" d="M335.36,-83.24C349.31,-83.1 367.75,-82.92 383.38,-82.76"/>
<polygon fill="black" stroke="black" points="383.7,-86.26 393.66,-82.66 383.63,-79.26 383.7,-86.26"/>
<text text-anchor="middle" x="364.49" y="-86.25" font-family="Times,serif" font-size="14.00">0.0</text>
</g>
<!-- 7 -->
<g id="node4" class="node">
<title>7</title>
<ellipse fill="lightblue" stroke="black" cx="795.03" cy="-79.45" rx="23" ry="23"/>
<text text-anchor="middle" x="795.03" y="-75.75" font-family="Times,serif" font-size="14.00">b2</text>
</g>
<!-- 6 -->
<g id="node9" class="node">
<title>6</title>
<ellipse fill="transparent" stroke="black" cx="894.78" cy="-74.45" rx="18" ry="18"/>
<text text-anchor="middle" x="894.78" y="-70.75" font-family="Times,serif" font-size="14.00">b</text>
</g>
<!-- 7&#45;&gt;6 -->
<g id="edge10" class="edge">
<title>7&#45;&gt;6</title>
<path fill="none" stroke="black" d="M818.21,-78.31C832.45,-77.59 851.03,-76.63 866.21,-75.86"/>
<polygon fill="black" stroke="black" points="866.74,-79.34 876.55,-75.33 866.39,-72.34 866.74,-79.34"/>
<text text-anchor="middle" x="847.28" y="-80.25" font-family="Times,serif" font-size="14.00">0.0</text>
</g>
<!-- 9 -->
<g id="node5" class="node">
<title>9</title>
<ellipse fill="black" stroke="black" cx="126.8" cy="-81.45" rx="1.8" ry="1.8"/>
</g>
<!-- 13 -->
<g id="node13" class="node">
<title>13</title>
<ellipse fill="lightblue" stroke="black" cx="209.7" cy="-83.45" rx="22.2" ry="22.2"/>
<text text-anchor="middle" x="209.7" y="-79.75" font-family="Times,serif" font-size="14.00">a1</text>
</g>
<!-- 9&#45;&gt;13 -->
<g id="edge3" class="edge">
<title>9&#45;&gt;13</title>
<path fill="none" stroke="black" d="M128.71,-81.47C133.56,-81.59 156.92,-82.17 177.16,-82.67"/>
<polygon fill="black" stroke="black" points="177.25,-86.17 187.34,-82.92 177.43,-79.17 177.25,-86.17"/>
<text text-anchor="middle" x="158.1" y="-86.25" font-family="Times,serif" font-size="14.00">0.0</text>
</g>
<!-- 10 -->
<g id="node6" class="node">
<title>10</title>
<ellipse fill="transparent" stroke="black" cx="528.19" cy="-82.45" rx="18" ry="18"/>
<text text-anchor="middle" x="528.19" y="-78.75" font-family="Times,serif" font-size="14.00">a</text>
</g>
<!-- 5 -->
<g id="node12" class="node">
<title>5</title>
<ellipse fill="black" stroke="black" cx="606.99" cy="-82.45" rx="1.8" ry="1.8"/>
</g>
<!-- 10&#45;&gt;5 -->
<g id="edge7" class="edge">
<title>10&#45;&gt;5</title>
<path fill="none" stroke="black" d="M546.23,-82.45C561.13,-82.45 582.32,-82.45 595.05,-82.45"/>
<polygon fill="black" stroke="black" points="595.05,-85.95 605.05,-82.45 595.05,-78.95 595.05,-85.95"/>
<text text-anchor="middle" x="575.69" y="-86.25" font-family="Times,serif" font-size="14.00">0.0</text>
</g>
<!-- s -->
<g id="node7" class="node">
<title>s</title>
<ellipse fill="none" stroke="black" stroke-width="2" cx="21.5" cy="-61.45" rx="21.5" ry="21.5"/>
<text text-anchor="middle" x="21.5" y="-57.75" font-family="Times,serif" font-size="14.00">&lt;s&gt;</text>
</g>
<!-- s&#45;&gt;9 -->
<g id="edge1" class="edge">
<title>s&#45;&gt;9</title>
<path fill="none" stroke="black" d="M42.91,-65.4C64.48,-69.58 97.7,-76.01 114.8,-79.32"/>
<polygon fill="black" stroke="black" points="114.39,-82.8 124.87,-81.27 115.72,-75.93 114.39,-82.8"/>
<text text-anchor="middle" x="84" y="-81.25" font-family="Times,serif" font-size="14.00">&#45;0.693</text>
</g>
<!-- 1 -->
<g id="node15" class="node">
<title>1</title>
<ellipse fill="black" stroke="black" cx="126.8" cy="-39.45" rx="1.8" ry="1.8"/>
</g>
<!-- s&#45;&gt;1 -->
<g id="edge2" class="edge">
<title>s&#45;&gt;1</title>
<path fill="none" stroke="black" d="M42.33,-54.65C48.28,-52.78 54.86,-50.87 61,-49.45 79.69,-45.12 101.86,-42.15 114.83,-40.64"/>
<polygon fill="black" stroke="black" points="115.32,-44.1 124.88,-39.54 114.56,-37.14 115.32,-44.1"/>
<text text-anchor="middle" x="84" y="-53.25" font-family="Times,serif" font-size="14.00">&#45;0.693</text>
</g>
<!-- 8 -->
<g id="node8" class="node">
<title>8</title>
<ellipse fill="lightblue" stroke="black" cx="690.54" cy="-82.45" rx="23" ry="23"/>
<text text-anchor="middle" x="690.54" y="-78.75" font-family="Times,serif" font-size="14.00">b1</text>
</g>
<!-- 8&#45;&gt;7 -->
<g id="edge9" class="edge">
<title>8&#45;&gt;7</title>
<path fill="none" stroke="black" d="M713.52,-81.8C727.58,-81.39 746.04,-80.85 761.74,-80.39"/>
<polygon fill="black" stroke="black" points="762.19,-83.88 772.08,-80.09 761.98,-76.88 762.19,-83.88"/>
<text text-anchor="middle" x="742.78" y="-84.25" font-family="Times,serif" font-size="14.00">0.0</text>
</g>
<!-- 6&#45;&gt;e -->
<g id="edge11" class="edge">
<title>6&#45;&gt;e</title>
<path fill="none" stroke="black" d="M912.38,-69.16C926.17,-64.77 946.23,-58.38 963.27,-52.96"/>
<polygon fill="black" stroke="black" points="964.43,-56.26 972.89,-49.9 962.3,-49.59 964.43,-56.26"/>
<text text-anchor="middle" x="942.28" y="-66.25" font-family="Times,serif" font-size="14.00">0.0</text>
</g>
<!-- 4 -->
<g id="node10" class="node">
<title>4</title>
<ellipse fill="lightblue" stroke="black" cx="209.7" cy="-21.45" rx="21.4" ry="21.4"/>
<text text-anchor="middle" x="209.7" y="-17.75" font-family="Times,serif" font-size="14.00">c1</text>
</g>
<!-- 3 -->
<g id="node11" class="node">
<title>3</title>
<ellipse fill="lightblue" stroke="black" cx="312.89" cy="-21.45" rx="21.4" ry="21.4"/>
<text text-anchor="middle" x="312.89" y="-17.75" font-family="Times,serif" font-size="14.00">c2</text>
</g>
<!-- 4&#45;&gt;3 -->
<g id="edge13" class="edge">
<title>4&#45;&gt;3</title>
<path fill="none" stroke="black" d="M231.18,-21.45C245.48,-21.45 264.84,-21.45 281.02,-21.45"/>
<polygon fill="black" stroke="black" points="281.1,-24.95 291.1,-21.45 281.1,-17.95 281.1,-24.95"/>
<text text-anchor="middle" x="261.3" y="-25.25" font-family="Times,serif" font-size="14.00">0.0</text>
</g>
<!-- 3&#45;&gt;2 -->
<g id="edge14" class="edge">
<title>3&#45;&gt;2</title>
<path fill="none" stroke="black" d="M334.39,-21.96C362.81,-22.68 414.23,-23.97 445.87,-24.76"/>
<polygon fill="black" stroke="black" points="446.09,-28.27 456.17,-25.02 446.26,-21.27 446.09,-28.27"/>
<text text-anchor="middle" x="364.49" y="-27.25" font-family="Times,serif" font-size="14.00">0.0</text>
</g>
<!-- 5&#45;&gt;8 -->
<g id="edge8" class="edge">
<title>5&#45;&gt;8</title>
<path fill="none" stroke="black" d="M608.9,-82.45C613.76,-82.45 637.06,-82.45 657.37,-82.45"/>
<polygon fill="black" stroke="black" points="657.6,-85.95 667.6,-82.45 657.6,-78.95 657.6,-85.95"/>
<text text-anchor="middle" x="638.29" y="-86.25" font-family="Times,serif" font-size="14.00">0.0</text>
</g>
<!-- 13&#45;&gt;11 -->
<g id="edge4" class="edge">
<title>13&#45;&gt;11</title>
<path fill="none" stroke="black" d="M232.16,-83.45C246.11,-83.45 264.55,-83.45 280.18,-83.45"/>
<polygon fill="black" stroke="black" points="280.46,-86.95 290.46,-83.45 280.46,-79.95 280.46,-86.95"/>
<text text-anchor="middle" x="261.3" y="-87.25" font-family="Times,serif" font-size="14.00">0.0</text>
</g>
<!-- 12&#45;&gt;10 -->
<g id="edge6" class="edge">
<title>12&#45;&gt;10</title>
<path fill="none" stroke="black" d="M438.32,-82.45C455.85,-82.45 480.84,-82.45 499.86,-82.45"/>
<polygon fill="black" stroke="black" points="500,-85.95 510,-82.45 500,-78.95 500,-85.95"/>
<text text-anchor="middle" x="474.19" y="-86.25" font-family="Times,serif" font-size="14.00">0.0</text>
</g>
<!-- 1&#45;&gt;4 -->
<g id="edge12" class="edge">
<title>1&#45;&gt;4</title>
<path fill="none" stroke="black" d="M128.71,-39.25C133.67,-38.14 158,-32.73 178.54,-28.16"/>
<polygon fill="black" stroke="black" points="179.52,-31.53 188.52,-25.94 178,-24.69 179.52,-31.53"/>
<text text-anchor="middle" x="158.1" y="-39.25" font-family="Times,serif" font-size="14.00">0.0</text>
</g>
</g>
</svg>
