<?xml version="1.0" encoding="utf-8"?>
<svg xmlns="http://www.w3.org/2000/svg" xmlns:xlink="http://www.w3.org/1999/xlink" width="600" height="400" viewBox="0 0 2400 1600">
<defs>
  <clipPath id="clip340">
    <rect x="0" y="0" width="2400" height="1600"/>
  </clipPath>
</defs>
<path clip-path="url(#clip340)" d="
M0 1600 L2400 1600 L2400 0 L0 0  Z
  " fill="#ffffff" fill-rule="evenodd" fill-opacity="1"/>
<defs>
  <clipPath id="clip341">
    <rect x="480" y="0" width="1681" height="1600"/>
  </clipPath>
</defs>
<path clip-path="url(#clip340)" d="
M174.862 1486.45 L2352.76 1486.45 L2352.76 47.2441 L174.862 47.2441  Z
  " fill="#ffffff" fill-rule="evenodd" fill-opacity="1"/>
<defs>
  <clipPath id="clip342">
    <rect x="174" y="47" width="2179" height="1440"/>
  </clipPath>
</defs>
<polyline clip-path="url(#clip342)" style="stroke:#000000; stroke-width:2; stroke-opacity:0.1; fill:none" points="
  236.501,1486.45 236.501,47.2441 
  "/>
<polyline clip-path="url(#clip342)" style="stroke:#000000; stroke-width:2; stroke-opacity:0.1; fill:none" points="
  750.155,1486.45 750.155,47.2441 
  "/>
<polyline clip-path="url(#clip342)" style="stroke:#000000; stroke-width:2; stroke-opacity:0.1; fill:none" points="
  1263.81,1486.45 1263.81,47.2441 
  "/>
<polyline clip-path="url(#clip342)" style="stroke:#000000; stroke-width:2; stroke-opacity:0.1; fill:none" points="
  1777.46,1486.45 1777.46,47.2441 
  "/>
<polyline clip-path="url(#clip342)" style="stroke:#000000; stroke-width:2; stroke-opacity:0.1; fill:none" points="
  2291.12,1486.45 2291.12,47.2441 
  "/>
<polyline clip-path="url(#clip342)" style="stroke:#000000; stroke-width:2; stroke-opacity:0.1; fill:none" points="
  174.862,1445.72 2352.76,1445.72 
  "/>
<polyline clip-path="url(#clip342)" style="stroke:#000000; stroke-width:2; stroke-opacity:0.1; fill:none" points="
  174.862,1106.28 2352.76,1106.28 
  "/>
<polyline clip-path="url(#clip342)" style="stroke:#000000; stroke-width:2; stroke-opacity:0.1; fill:none" points="
  174.862,766.846 2352.76,766.846 
  "/>
<polyline clip-path="url(#clip342)" style="stroke:#000000; stroke-width:2; stroke-opacity:0.1; fill:none" points="
  174.862,427.411 2352.76,427.411 
  "/>
<polyline clip-path="url(#clip342)" style="stroke:#000000; stroke-width:2; stroke-opacity:0.1; fill:none" points="
  174.862,87.9763 2352.76,87.9763 
  "/>
<polyline clip-path="url(#clip340)" style="stroke:#000000; stroke-width:4; stroke-opacity:1; fill:none" points="
  174.862,1486.45 2352.76,1486.45 
  "/>
<polyline clip-path="url(#clip340)" style="stroke:#000000; stroke-width:4; stroke-opacity:1; fill:none" points="
  174.862,1486.45 174.862,47.2441 
  "/>
<polyline clip-path="url(#clip340)" style="stroke:#000000; stroke-width:4; stroke-opacity:1; fill:none" points="
  236.501,1486.45 236.501,1469.18 
  "/>
<polyline clip-path="url(#clip340)" style="stroke:#000000; stroke-width:4; stroke-opacity:1; fill:none" points="
  750.155,1486.45 750.155,1469.18 
  "/>
<polyline clip-path="url(#clip340)" style="stroke:#000000; stroke-width:4; stroke-opacity:1; fill:none" points="
  1263.81,1486.45 1263.81,1469.18 
  "/>
<polyline clip-path="url(#clip340)" style="stroke:#000000; stroke-width:4; stroke-opacity:1; fill:none" points="
  1777.46,1486.45 1777.46,1469.18 
  "/>
<polyline clip-path="url(#clip340)" style="stroke:#000000; stroke-width:4; stroke-opacity:1; fill:none" points="
  2291.12,1486.45 2291.12,1469.18 
  "/>
<polyline clip-path="url(#clip340)" style="stroke:#000000; stroke-width:4; stroke-opacity:1; fill:none" points="
  174.862,1445.72 200.997,1445.72 
  "/>
<polyline clip-path="url(#clip340)" style="stroke:#000000; stroke-width:4; stroke-opacity:1; fill:none" points="
  174.862,1106.28 200.997,1106.28 
  "/>
<polyline clip-path="url(#clip340)" style="stroke:#000000; stroke-width:4; stroke-opacity:1; fill:none" points="
  174.862,766.846 200.997,766.846 
  "/>
<polyline clip-path="url(#clip340)" style="stroke:#000000; stroke-width:4; stroke-opacity:1; fill:none" points="
  174.862,427.411 200.997,427.411 
  "/>
<polyline clip-path="url(#clip340)" style="stroke:#000000; stroke-width:4; stroke-opacity:1; fill:none" points="
  174.862,87.9763 200.997,87.9763 
  "/>
<path clip-path="url(#clip340)" d="M 0 0 M226.883 1535.98 L234.521 1535.98 L234.521 1509.62 L226.211 1511.29 L226.211 1507.03 L234.475 1505.36 L239.151 1505.36 L239.151 1535.98 L246.79 1535.98 L246.79 1539.92 L226.883 1539.92 L226.883 1535.98 Z" fill="#000000" fill-rule="evenodd" fill-opacity="1" /><path clip-path="url(#clip340)" d="M 0 0 M744.808 1535.98 L761.127 1535.98 L761.127 1539.92 L739.183 1539.92 L739.183 1535.98 Q741.845 1533.23 746.428 1528.6 Q751.034 1523.95 752.215 1522.61 Q754.46 1520.08 755.34 1518.35 Q756.243 1516.59 756.243 1514.9 Q756.243 1512.14 754.298 1510.41 Q752.377 1508.67 749.275 1508.67 Q747.076 1508.67 744.622 1509.43 Q742.192 1510.2 739.414 1511.75 L739.414 1507.03 Q742.238 1505.89 744.692 1505.31 Q747.146 1504.73 749.183 1504.73 Q754.553 1504.73 757.747 1507.42 Q760.942 1510.11 760.942 1514.6 Q760.942 1516.73 760.132 1518.65 Q759.345 1520.54 757.238 1523.14 Q756.659 1523.81 753.558 1527.03 Q750.456 1530.22 744.808 1535.98 Z" fill="#000000" fill-rule="evenodd" fill-opacity="1" /><path clip-path="url(#clip340)" d="M 0 0 M1268.06 1521.29 Q1271.41 1522 1273.29 1524.27 Q1275.19 1526.54 1275.19 1529.87 Q1275.19 1534.99 1271.67 1537.79 Q1268.15 1540.59 1261.67 1540.59 Q1259.49 1540.59 1257.18 1540.15 Q1254.89 1539.73 1252.43 1538.88 L1252.43 1534.36 Q1254.38 1535.5 1256.69 1536.08 Q1259.01 1536.66 1261.53 1536.66 Q1265.93 1536.66 1268.22 1534.92 Q1270.53 1533.18 1270.53 1529.87 Q1270.53 1526.82 1268.38 1525.11 Q1266.25 1523.37 1262.43 1523.37 L1258.4 1523.37 L1258.4 1519.53 L1262.62 1519.53 Q1266.07 1519.53 1267.89 1518.16 Q1269.72 1516.77 1269.72 1514.18 Q1269.72 1511.52 1267.83 1510.11 Q1265.95 1508.67 1262.43 1508.67 Q1260.51 1508.67 1258.31 1509.09 Q1256.11 1509.5 1253.47 1510.38 L1253.47 1506.22 Q1256.14 1505.48 1258.45 1505.11 Q1260.79 1504.73 1262.85 1504.73 Q1268.17 1504.73 1271.27 1507.17 Q1274.38 1509.57 1274.38 1513.69 Q1274.38 1516.56 1272.73 1518.55 Q1271.09 1520.52 1268.06 1521.29 Z" fill="#000000" fill-rule="evenodd" fill-opacity="1" /><path clip-path="url(#clip340)" d="M 0 0 M1780.47 1509.43 L1768.67 1527.88 L1780.47 1527.88 L1780.47 1509.43 M1779.25 1505.36 L1785.13 1505.36 L1785.13 1527.88 L1790.06 1527.88 L1790.06 1531.77 L1785.13 1531.77 L1785.13 1539.92 L1780.47 1539.92 L1780.47 1531.77 L1764.87 1531.77 L1764.87 1527.26 L1779.25 1505.36 Z" fill="#000000" fill-rule="evenodd" fill-opacity="1" /><path clip-path="url(#clip340)" d="M 0 0 M2281.4 1505.36 L2299.75 1505.36 L2299.75 1509.3 L2285.68 1509.3 L2285.68 1517.77 Q2286.7 1517.42 2287.71 1517.26 Q2288.73 1517.07 2289.75 1517.07 Q2295.54 1517.07 2298.92 1520.24 Q2302.3 1523.42 2302.3 1528.83 Q2302.3 1534.41 2298.83 1537.51 Q2295.35 1540.59 2289.03 1540.59 Q2286.86 1540.59 2284.59 1540.22 Q2282.34 1539.85 2279.94 1539.11 L2279.94 1534.41 Q2282.02 1535.54 2284.24 1536.1 Q2286.46 1536.66 2288.94 1536.66 Q2292.95 1536.66 2295.28 1534.55 Q2297.62 1532.44 2297.62 1528.83 Q2297.62 1525.22 2295.28 1523.11 Q2292.95 1521.01 2288.94 1521.01 Q2287.07 1521.01 2285.19 1521.42 Q2283.34 1521.84 2281.4 1522.72 L2281.4 1505.36 Z" fill="#000000" fill-rule="evenodd" fill-opacity="1" /><path clip-path="url(#clip340)" d="M 0 0 M74.9365 1431.51 Q71.3254 1431.51 69.4967 1435.08 Q67.6912 1438.62 67.6912 1445.75 Q67.6912 1452.86 69.4967 1456.42 Q71.3254 1459.96 74.9365 1459.96 Q78.5707 1459.96 80.3763 1456.42 Q82.205 1452.86 82.205 1445.75 Q82.205 1438.62 80.3763 1435.08 Q78.5707 1431.51 74.9365 1431.51 M74.9365 1427.81 Q80.7467 1427.81 83.8022 1432.42 Q86.8809 1437 86.8809 1445.75 Q86.8809 1454.48 83.8022 1459.08 Q80.7467 1463.67 74.9365 1463.67 Q69.1264 1463.67 66.0477 1459.08 Q62.9921 1454.48 62.9921 1445.75 Q62.9921 1437 66.0477 1432.42 Q69.1264 1427.81 74.9365 1427.81 Z" fill="#000000" fill-rule="evenodd" fill-opacity="1" /><path clip-path="url(#clip340)" d="M 0 0 M91.9503 1457.12 L96.8345 1457.12 L96.8345 1463 L91.9503 1463 L91.9503 1457.12 Z" fill="#000000" fill-rule="evenodd" fill-opacity="1" /><path clip-path="url(#clip340)" d="M 0 0 M111.904 1431.51 Q108.293 1431.51 106.464 1435.08 Q104.659 1438.62 104.659 1445.75 Q104.659 1452.86 106.464 1456.42 Q108.293 1459.96 111.904 1459.96 Q115.538 1459.96 117.344 1456.42 Q119.172 1452.86 119.172 1445.75 Q119.172 1438.62 117.344 1435.08 Q115.538 1431.51 111.904 1431.51 M111.904 1427.81 Q117.714 1427.81 120.77 1432.42 Q123.848 1437 123.848 1445.75 Q123.848 1454.48 120.77 1459.08 Q117.714 1463.67 111.904 1463.67 Q106.094 1463.67 103.015 1459.08 Q99.9595 1454.48 99.9595 1445.75 Q99.9595 1437 103.015 1432.42 Q106.094 1427.81 111.904 1427.81 Z" fill="#000000" fill-rule="evenodd" fill-opacity="1" /><path clip-path="url(#clip340)" d="M 0 0 M138.918 1431.51 Q135.307 1431.51 133.478 1435.08 Q131.672 1438.62 131.672 1445.75 Q131.672 1452.86 133.478 1456.42 Q135.307 1459.96 138.918 1459.96 Q142.552 1459.96 144.357 1456.42 Q146.186 1452.86 146.186 1445.75 Q146.186 1438.62 144.357 1435.08 Q142.552 1431.51 138.918 1431.51 M138.918 1427.81 Q144.728 1427.81 147.783 1432.42 Q150.862 1437 150.862 1445.75 Q150.862 1454.48 147.783 1459.08 Q144.728 1463.67 138.918 1463.67 Q133.107 1463.67 130.029 1459.08 Q126.973 1454.48 126.973 1445.75 Q126.973 1437 130.029 1432.42 Q133.107 1427.81 138.918 1427.81 Z" fill="#000000" fill-rule="evenodd" fill-opacity="1" /><path clip-path="url(#clip340)" d="M 0 0 M77.5291 1092.08 Q73.918 1092.08 72.0893 1095.64 Q70.2838 1099.19 70.2838 1106.32 Q70.2838 1113.42 72.0893 1116.99 Q73.918 1120.53 77.5291 1120.53 Q81.1633 1120.53 82.9689 1116.99 Q84.7976 1113.42 84.7976 1106.32 Q84.7976 1099.19 82.9689 1095.64 Q81.1633 1092.08 77.5291 1092.08 M77.5291 1088.38 Q83.3392 1088.38 86.3948 1092.98 Q89.4735 1097.57 89.4735 1106.32 Q89.4735 1115.04 86.3948 1119.65 Q83.3392 1124.23 77.5291 1124.23 Q71.7189 1124.23 68.6402 1119.65 Q65.5847 1115.04 65.5847 1106.32 Q65.5847 1097.57 68.6402 1092.98 Q71.7189 1088.38 77.5291 1088.38 Z" fill="#000000" fill-rule="evenodd" fill-opacity="1" /><path clip-path="url(#clip340)" d="M 0 0 M94.5429 1117.68 L99.4271 1117.68 L99.4271 1123.56 L94.5429 1123.56 L94.5429 1117.68 Z" fill="#000000" fill-rule="evenodd" fill-opacity="1" /><path clip-path="url(#clip340)" d="M 0 0 M108.524 1119.63 L124.844 1119.63 L124.844 1123.56 L102.899 1123.56 L102.899 1119.63 Q105.561 1116.87 110.145 1112.24 Q114.751 1107.59 115.932 1106.25 Q118.177 1103.72 119.057 1101.99 Q119.959 1100.23 119.959 1098.54 Q119.959 1095.78 118.015 1094.05 Q116.094 1092.31 112.992 1092.31 Q110.793 1092.31 108.339 1093.07 Q105.909 1093.84 103.131 1095.39 L103.131 1090.67 Q105.955 1089.53 108.409 1088.95 Q110.862 1088.38 112.899 1088.38 Q118.27 1088.38 121.464 1091.06 Q124.658 1093.75 124.658 1098.24 Q124.658 1100.37 123.848 1102.29 Q123.061 1104.19 120.955 1106.78 Q120.376 1107.45 117.274 1110.67 Q114.172 1113.86 108.524 1119.63 Z" fill="#000000" fill-rule="evenodd" fill-opacity="1" /><path clip-path="url(#clip340)" d="M 0 0 M129.959 1089 L148.316 1089 L148.316 1092.94 L134.242 1092.94 L134.242 1101.41 Q135.26 1101.06 136.279 1100.9 Q137.297 1100.71 138.316 1100.71 Q144.103 1100.71 147.482 1103.89 Q150.862 1107.06 150.862 1112.47 Q150.862 1118.05 147.39 1121.15 Q143.918 1124.23 137.598 1124.23 Q135.422 1124.23 133.154 1123.86 Q130.908 1123.49 128.501 1122.75 L128.501 1118.05 Q130.584 1119.19 132.807 1119.74 Q135.029 1120.3 137.506 1120.3 Q141.51 1120.3 143.848 1118.19 Q146.186 1116.08 146.186 1112.47 Q146.186 1108.86 143.848 1106.76 Q141.51 1104.65 137.506 1104.65 Q135.631 1104.65 133.756 1105.07 Q131.904 1105.48 129.959 1106.36 L129.959 1089 Z" fill="#000000" fill-rule="evenodd" fill-opacity="1" /><path clip-path="url(#clip340)" d="M 0 0 M75.9319 752.645 Q72.3208 752.645 70.4921 756.209 Q68.6865 759.751 68.6865 766.881 Q68.6865 773.987 70.4921 777.552 Q72.3208 781.094 75.9319 781.094 Q79.5661 781.094 81.3717 777.552 Q83.2004 773.987 83.2004 766.881 Q83.2004 759.751 81.3717 756.209 Q79.5661 752.645 75.9319 752.645 M75.9319 748.941 Q81.742 748.941 84.7976 753.547 Q87.8763 758.131 87.8763 766.881 Q87.8763 775.608 84.7976 780.214 Q81.742 784.797 75.9319 784.797 Q70.1217 784.797 67.043 780.214 Q63.9875 775.608 63.9875 766.881 Q63.9875 758.131 67.043 753.547 Q70.1217 748.941 75.9319 748.941 Z" fill="#000000" fill-rule="evenodd" fill-opacity="1" /><path clip-path="url(#clip340)" d="M 0 0 M92.9457 778.246 L97.8299 778.246 L97.8299 784.126 L92.9457 784.126 L92.9457 778.246 Z" fill="#000000" fill-rule="evenodd" fill-opacity="1" /><path clip-path="url(#clip340)" d="M 0 0 M102.946 749.566 L121.302 749.566 L121.302 753.501 L107.228 753.501 L107.228 761.973 Q108.247 761.626 109.265 761.464 Q110.284 761.279 111.302 761.279 Q117.089 761.279 120.469 764.45 Q123.848 767.621 123.848 773.038 Q123.848 778.617 120.376 781.719 Q116.904 784.797 110.584 784.797 Q108.409 784.797 106.14 784.427 Q103.895 784.057 101.487 783.316 L101.487 778.617 Q103.571 779.751 105.793 780.307 Q108.015 780.862 110.492 780.862 Q114.496 780.862 116.834 778.756 Q119.172 776.649 119.172 773.038 Q119.172 769.427 116.834 767.321 Q114.496 765.214 110.492 765.214 Q108.617 765.214 106.742 765.631 Q104.89 766.047 102.946 766.927 L102.946 749.566 Z" fill="#000000" fill-rule="evenodd" fill-opacity="1" /><path clip-path="url(#clip340)" d="M 0 0 M138.918 752.645 Q135.307 752.645 133.478 756.209 Q131.672 759.751 131.672 766.881 Q131.672 773.987 133.478 777.552 Q135.307 781.094 138.918 781.094 Q142.552 781.094 144.357 777.552 Q146.186 773.987 146.186 766.881 Q146.186 759.751 144.357 756.209 Q142.552 752.645 138.918 752.645 M138.918 748.941 Q144.728 748.941 147.783 753.547 Q150.862 758.131 150.862 766.881 Q150.862 775.608 147.783 780.214 Q144.728 784.797 138.918 784.797 Q133.107 784.797 130.029 780.214 Q126.973 775.608 126.973 766.881 Q126.973 758.131 130.029 753.547 Q133.107 748.941 138.918 748.941 Z" fill="#000000" fill-rule="evenodd" fill-opacity="1" /><path clip-path="url(#clip340)" d="M 0 0 M76.8346 413.21 Q73.2236 413.21 71.3949 416.775 Q69.5893 420.316 69.5893 427.446 Q69.5893 434.552 71.3949 438.117 Q73.2236 441.659 76.8346 441.659 Q80.4689 441.659 82.2744 438.117 Q84.1031 434.552 84.1031 427.446 Q84.1031 420.316 82.2744 416.775 Q80.4689 413.21 76.8346 413.21 M76.8346 409.506 Q82.6448 409.506 85.7003 414.113 Q88.779 418.696 88.779 427.446 Q88.779 436.173 85.7003 440.779 Q82.6448 445.362 76.8346 445.362 Q71.0245 445.362 67.9458 440.779 Q64.8903 436.173 64.8903 427.446 Q64.8903 418.696 67.9458 414.113 Q71.0245 409.506 76.8346 409.506 Z" fill="#000000" fill-rule="evenodd" fill-opacity="1" /><path clip-path="url(#clip340)" d="M 0 0 M93.8484 438.812 L98.7327 438.812 L98.7327 444.691 L93.8484 444.691 L93.8484 438.812 Z" fill="#000000" fill-rule="evenodd" fill-opacity="1" /><path clip-path="url(#clip340)" d="M 0 0 M102.622 410.131 L124.844 410.131 L124.844 412.122 L112.297 444.691 L107.413 444.691 L119.219 414.066 L102.622 414.066 L102.622 410.131 Z" fill="#000000" fill-rule="evenodd" fill-opacity="1" /><path clip-path="url(#clip340)" d="M 0 0 M129.959 410.131 L148.316 410.131 L148.316 414.066 L134.242 414.066 L134.242 422.538 Q135.26 422.191 136.279 422.029 Q137.297 421.844 138.316 421.844 Q144.103 421.844 147.482 425.015 Q150.862 428.187 150.862 433.603 Q150.862 439.182 147.39 442.284 Q143.918 445.362 137.598 445.362 Q135.422 445.362 133.154 444.992 Q130.908 444.622 128.501 443.881 L128.501 439.182 Q130.584 440.316 132.807 440.872 Q135.029 441.427 137.506 441.427 Q141.51 441.427 143.848 439.321 Q146.186 437.214 146.186 433.603 Q146.186 429.992 143.848 427.886 Q141.51 425.779 137.506 425.779 Q135.631 425.779 133.756 426.196 Q131.904 426.613 129.959 427.492 L129.959 410.131 Z" fill="#000000" fill-rule="evenodd" fill-opacity="1" /><path clip-path="url(#clip340)" d="M 0 0 M66.9736 101.321 L74.6124 101.321 L74.6124 74.9555 L66.3023 76.6222 L66.3023 72.3629 L74.5661 70.6963 L79.242 70.6963 L79.242 101.321 L86.8809 101.321 L86.8809 105.256 L66.9736 105.256 L66.9736 101.321 Z" fill="#000000" fill-rule="evenodd" fill-opacity="1" /><path clip-path="url(#clip340)" d="M 0 0 M91.9503 99.3767 L96.8345 99.3767 L96.8345 105.256 L91.9503 105.256 L91.9503 99.3767 Z" fill="#000000" fill-rule="evenodd" fill-opacity="1" /><path clip-path="url(#clip340)" d="M 0 0 M111.904 73.775 Q108.293 73.775 106.464 77.3398 Q104.659 80.8814 104.659 88.011 Q104.659 95.1174 106.464 98.6822 Q108.293 102.224 111.904 102.224 Q115.538 102.224 117.344 98.6822 Q119.172 95.1174 119.172 88.011 Q119.172 80.8814 117.344 77.3398 Q115.538 73.775 111.904 73.775 M111.904 70.0713 Q117.714 70.0713 120.77 74.6777 Q123.848 79.261 123.848 88.011 Q123.848 96.7378 120.77 101.344 Q117.714 105.928 111.904 105.928 Q106.094 105.928 103.015 101.344 Q99.9595 96.7378 99.9595 88.011 Q99.9595 79.261 103.015 74.6777 Q106.094 70.0713 111.904 70.0713 Z" fill="#000000" fill-rule="evenodd" fill-opacity="1" /><path clip-path="url(#clip340)" d="M 0 0 M138.918 73.775 Q135.307 73.775 133.478 77.3398 Q131.672 80.8814 131.672 88.011 Q131.672 95.1174 133.478 98.6822 Q135.307 102.224 138.918 102.224 Q142.552 102.224 144.357 98.6822 Q146.186 95.1174 146.186 88.011 Q146.186 80.8814 144.357 77.3398 Q142.552 73.775 138.918 73.775 M138.918 70.0713 Q144.728 70.0713 147.783 74.6777 Q150.862 79.261 150.862 88.011 Q150.862 96.7378 147.783 101.344 Q144.728 105.928 138.918 105.928 Q133.107 105.928 130.029 101.344 Q126.973 96.7378 126.973 88.011 Q126.973 79.261 130.029 74.6777 Q133.107 70.0713 138.918 70.0713 Z" fill="#000000" fill-rule="evenodd" fill-opacity="1" /><polyline clip-path="url(#clip342)" style="stroke:#009af9; stroke-width:4; stroke-opacity:1; fill:none" points="
  236.501,87.9763 750.155,778.284 1263.81,1180.75 1777.46,1300.71 2291.12,87.9763 
  "/>
<polyline clip-path="url(#clip342)" style="stroke:#e26f46; stroke-width:4; stroke-opacity:1; fill:none" points="
  236.501,1445.72 750.155,755.407 1263.81,352.938 1777.46,232.985 2291.12,1445.72 
  "/>
<path clip-path="url(#clip340)" d="
M1831.44 276.658 L2280.16 276.658 L2280.16 95.2176 L1831.44 95.2176  Z
  " fill="#ffffff" fill-rule="evenodd" fill-opacity="1"/>
<polyline clip-path="url(#clip340)" style="stroke:#000000; stroke-width:4; stroke-opacity:1; fill:none" points="
  1831.44,276.658 2280.16,276.658 2280.16,95.2176 1831.44,95.2176 1831.44,276.658 
  "/>
<polyline clip-path="url(#clip340)" style="stroke:#009af9; stroke-width:4; stroke-opacity:1; fill:none" points="
  1855.64,155.698 2000.83,155.698 
  "/>
<path clip-path="url(#clip340)" d="M 0 0 M2029.31 169.089 L2029.31 182.839 L2025.03 182.839 L2025.03 147.052 L2029.31 147.052 L2029.31 150.987 Q2030.65 148.672 2032.69 147.561 Q2034.75 146.427 2037.6 146.427 Q2042.32 146.427 2045.26 150.177 Q2048.22 153.927 2048.22 160.038 Q2048.22 166.149 2045.26 169.899 Q2042.32 173.649 2037.6 173.649 Q2034.75 173.649 2032.69 172.538 Q2030.65 171.403 2029.31 169.089 M2043.8 160.038 Q2043.8 155.339 2041.86 152.677 Q2039.93 149.992 2036.55 149.992 Q2033.17 149.992 2031.23 152.677 Q2029.31 155.339 2029.31 160.038 Q2029.31 164.737 2031.23 167.422 Q2033.17 170.084 2036.55 170.084 Q2039.93 170.084 2041.86 167.422 Q2043.8 164.737 2043.8 160.038 Z" fill="#000000" fill-rule="evenodd" fill-opacity="1" /><path clip-path="url(#clip340)" d="M 0 0 M2062.92 137.006 Q2059.82 142.33 2058.31 147.538 Q2056.81 152.746 2056.81 158.093 Q2056.81 163.441 2058.31 168.695 Q2059.84 173.927 2062.92 179.228 L2059.22 179.228 Q2055.74 173.788 2054.01 168.533 Q2052.3 163.279 2052.3 158.093 Q2052.3 152.931 2054.01 147.7 Q2055.72 142.468 2059.22 137.006 L2062.92 137.006 Z" fill="#000000" fill-rule="evenodd" fill-opacity="1" /><path clip-path="url(#clip340)" d="M 0 0 M2065.54 147.052 L2085.77 147.052 L2085.77 150.941 L2069.75 169.575 L2085.77 169.575 L2085.77 172.978 L2064.96 172.978 L2064.96 169.089 L2080.98 150.455 L2065.54 150.455 L2065.54 147.052 Z" fill="#000000" fill-rule="evenodd" fill-opacity="1" /><path clip-path="url(#clip340)" d="M 0 0 M2105.86 151.45 L2135.54 151.45 L2135.54 155.339 L2105.86 155.339 L2105.86 151.45 M2105.86 160.894 L2135.54 160.894 L2135.54 164.829 L2105.86 164.829 L2105.86 160.894 Z" fill="#000000" fill-rule="evenodd" fill-opacity="1" /><path clip-path="url(#clip340)" d="M 0 0 M2156.48 169.042 L2164.12 169.042 L2164.12 142.677 L2155.81 144.343 L2155.81 140.084 L2164.08 138.418 L2168.75 138.418 L2168.75 169.042 L2176.39 169.042 L2176.39 172.978 L2156.48 172.978 L2156.48 169.042 Z" fill="#000000" fill-rule="evenodd" fill-opacity="1" /><path clip-path="url(#clip340)" d="M 0 0 M2186.35 136.751 L2186.35 184.158 L2182.41 184.158 L2182.41 136.751 L2186.35 136.751 Z" fill="#000000" fill-rule="evenodd" fill-opacity="1" /><path clip-path="url(#clip340)" d="M 0 0 M2189.33 138.418 L2194.35 138.418 L2202.94 151.265 L2211.58 138.418 L2216.6 138.418 L2205.49 155.015 L2217.34 172.978 L2212.32 172.978 L2202.6 158.279 L2192.8 172.978 L2187.76 172.978 L2200.1 154.529 L2189.33 138.418 Z" fill="#000000" fill-rule="evenodd" fill-opacity="1" /><path clip-path="url(#clip340)" d="M 0 0 M2221.14 137.006 L2224.84 137.006 Q2228.31 142.468 2230.03 147.7 Q2231.76 152.931 2231.76 158.093 Q2231.76 163.279 2230.03 168.533 Q2228.31 173.788 2224.84 179.228 L2221.14 179.228 Q2224.22 173.927 2225.72 168.695 Q2227.25 163.441 2227.25 158.093 Q2227.25 152.746 2225.72 147.538 Q2224.22 142.33 2221.14 137.006 Z" fill="#000000" fill-rule="evenodd" fill-opacity="1" /><polyline clip-path="url(#clip340)" style="stroke:#e26f46; stroke-width:4; stroke-opacity:1; fill:none" points="
  1855.64,216.178 2000.83,216.178 
  "/>
<path clip-path="url(#clip340)" d="M 0 0 M2029.31 229.569 L2029.31 243.319 L2025.03 243.319 L2025.03 207.532 L2029.31 207.532 L2029.31 211.467 Q2030.65 209.152 2032.69 208.041 Q2034.75 206.907 2037.6 206.907 Q2042.32 206.907 2045.26 210.657 Q2048.22 214.407 2048.22 220.518 Q2048.22 226.629 2045.26 230.379 Q2042.32 234.129 2037.6 234.129 Q2034.75 234.129 2032.69 233.018 Q2030.65 231.883 2029.31 229.569 M2043.8 220.518 Q2043.8 215.819 2041.86 213.157 Q2039.93 210.472 2036.55 210.472 Q2033.17 210.472 2031.23 213.157 Q2029.31 215.819 2029.31 220.518 Q2029.31 225.217 2031.23 227.902 Q2033.17 230.564 2036.55 230.564 Q2039.93 230.564 2041.86 227.902 Q2043.8 225.217 2043.8 220.518 Z" fill="#000000" fill-rule="evenodd" fill-opacity="1" /><path clip-path="url(#clip340)" d="M 0 0 M2062.92 197.486 Q2059.82 202.81 2058.31 208.018 Q2056.81 213.226 2056.81 218.573 Q2056.81 223.921 2058.31 229.175 Q2059.84 234.407 2062.92 239.708 L2059.22 239.708 Q2055.74 234.268 2054.01 229.013 Q2052.3 223.759 2052.3 218.573 Q2052.3 213.411 2054.01 208.18 Q2055.72 202.948 2059.22 197.486 L2062.92 197.486 Z" fill="#000000" fill-rule="evenodd" fill-opacity="1" /><path clip-path="url(#clip340)" d="M 0 0 M2065.54 207.532 L2085.77 207.532 L2085.77 211.421 L2069.75 230.055 L2085.77 230.055 L2085.77 233.458 L2064.96 233.458 L2064.96 229.569 L2080.98 210.935 L2065.54 210.935 L2065.54 207.532 Z" fill="#000000" fill-rule="evenodd" fill-opacity="1" /><path clip-path="url(#clip340)" d="M 0 0 M2105.86 211.93 L2135.54 211.93 L2135.54 215.819 L2105.86 215.819 L2105.86 211.93 M2105.86 221.374 L2135.54 221.374 L2135.54 225.309 L2105.86 225.309 L2105.86 221.374 Z" fill="#000000" fill-rule="evenodd" fill-opacity="1" /><path clip-path="url(#clip340)" d="M 0 0 M2159.7 229.522 L2176.02 229.522 L2176.02 233.458 L2154.08 233.458 L2154.08 229.522 Q2156.74 226.768 2161.32 222.138 Q2165.93 217.485 2167.11 216.143 Q2169.35 213.62 2170.23 211.884 Q2171.14 210.124 2171.14 208.435 Q2171.14 205.68 2169.19 203.944 Q2167.27 202.208 2164.17 202.208 Q2161.97 202.208 2159.52 202.972 Q2157.09 203.735 2154.31 205.286 L2154.31 200.564 Q2157.13 199.43 2159.59 198.851 Q2162.04 198.273 2164.08 198.273 Q2169.45 198.273 2172.64 200.958 Q2175.84 203.643 2175.84 208.134 Q2175.84 210.263 2175.03 212.185 Q2174.24 214.083 2172.13 216.675 Q2171.55 217.347 2168.45 220.564 Q2165.35 223.759 2159.7 229.522 Z" fill="#000000" fill-rule="evenodd" fill-opacity="1" /><path clip-path="url(#clip340)" d="M 0 0 M2185.98 197.231 L2185.98 244.638 L2182.04 244.638 L2182.04 197.231 L2185.98 197.231 Z" fill="#000000" fill-rule="evenodd" fill-opacity="1" /><path clip-path="url(#clip340)" d="M 0 0 M2188.96 198.898 L2193.98 198.898 L2202.57 211.745 L2211.21 198.898 L2216.23 198.898 L2205.12 215.495 L2216.97 233.458 L2211.95 233.458 L2202.22 218.759 L2192.43 233.458 L2187.39 233.458 L2199.72 215.009 L2188.96 198.898 Z" fill="#000000" fill-rule="evenodd" fill-opacity="1" /><path clip-path="url(#clip340)" d="M 0 0 M2220.77 197.486 L2224.47 197.486 Q2227.94 202.948 2229.66 208.18 Q2231.39 213.411 2231.39 218.573 Q2231.39 223.759 2229.66 229.013 Q2227.94 234.268 2224.47 239.708 L2220.77 239.708 Q2223.85 234.407 2225.35 229.175 Q2226.88 223.921 2226.88 218.573 Q2226.88 213.226 2225.35 208.018 Q2223.85 202.81 2220.77 197.486 Z" fill="#000000" fill-rule="evenodd" fill-opacity="1" /></svg>
