<?xml version="1.0" encoding="UTF-8" standalone="no"?>
<!DOCTYPE svg PUBLIC "-//W3C//DTD SVG 1.1//EN"
 "http://www.w3.org/Graphics/SVG/1.1/DTD/svg11.dtd">
<!-- Generated by graphviz version 2.43.0 (0)
 -->
<!-- Title: %3 Pages: 1 -->
<svg width="374pt" height="59pt"
 viewBox="0.00 0.00 374.00 59.00" xmlns="http://www.w3.org/2000/svg" xmlns:xlink="http://www.w3.org/1999/xlink">
<g id="graph0" class="graph" transform="scale(1 1) rotate(0) translate(4 55)">
<title>%3</title>
<polygon fill="white" stroke="transparent" points="-4,4 -4,-55 370,-55 370,4 -4,4"/>
<!-- 2 -->
<g id="node1" class="node">
<title>2</title>
<ellipse fill="lightblue" stroke="black" cx="238" cy="-25.5" rx="18" ry="18"/>
<text text-anchor="middle" x="238" y="-21.8" font-family="Times,serif" font-size="14.00">b</text>
</g>
<!-- e -->
<g id="node3" class="node">
<title>e</title>
<ellipse fill="none" stroke="black" cx="340.5" cy="-25.5" rx="21.5" ry="21.5"/>
<ellipse fill="none" stroke="black" cx="340.5" cy="-25.5" rx="25.5" ry="25.5"/>
<text text-anchor="middle" x="340.5" y="-21.8" font-family="Times,serif" font-size="14.00">&lt;/s&gt;</text>
</g>
<!-- 2&#45;&gt;e -->
<g id="edge1" class="edge">
<title>2&#45;&gt;e</title>
<path fill="none" stroke="black" d="M256.05,-25.5C269.28,-25.5 288.07,-25.5 304.47,-25.5"/>
<polygon fill="black" stroke="black" points="304.82,-29 314.82,-25.5 304.82,-22 304.82,-29"/>
<text text-anchor="middle" x="285.5" y="-29.3" font-family="Times,serif" font-size="14.00">0.0</text>
</g>
<!-- s -->
<g id="node2" class="node">
<title>s</title>
<ellipse fill="none" stroke="black" stroke-width="2" cx="21.5" cy="-25.5" rx="21.5" ry="21.5"/>
<text text-anchor="middle" x="21.5" y="-21.8" font-family="Times,serif" font-size="14.00">&lt;s&gt;</text>
</g>
<!-- 1 -->
<g id="node4" class="node">
<title>1</title>
<ellipse fill="transparent" stroke="black" cx="120" cy="-25.5" rx="18" ry="18"/>
<text text-anchor="middle" x="120" y="-21.8" font-family="Times,serif" font-size="14.00">a</text>
</g>
<!-- s&#45;&gt;1 -->
<g id="edge2" class="edge">
<title>s&#45;&gt;1</title>
<path fill="none" stroke="black" d="M43.44,-25.5C57.53,-25.5 76.27,-25.5 91.55,-25.5"/>
<polygon fill="black" stroke="black" points="91.96,-29 101.96,-25.5 91.96,-22 91.96,-29"/>
<text text-anchor="middle" x="72.5" y="-29.3" font-family="Times,serif" font-size="14.00">0.0</text>
</g>
<!-- 1&#45;&gt;2 -->
<g id="edge3" class="edge">
<title>1&#45;&gt;2</title>
<path fill="none" stroke="black" d="M138.12,-25.5C156.96,-25.5 187.53,-25.5 209.7,-25.5"/>
<polygon fill="black" stroke="black" points="209.81,-29 219.81,-25.5 209.81,-22 209.81,-29"/>
<text text-anchor="middle" x="179" y="-29.3" font-family="Times,serif" font-size="14.00">&#45;0.693</text>
</g>
<!-- 1&#45;&gt;2 -->
<g id="edge4" class="edge">
<title>1&#45;&gt;2</title>
<path fill="none" stroke="black" d="M135.31,-15.63C141.4,-12.01 148.76,-8.34 156,-6.5 175.82,-1.47 182.18,-1.47 202,-6.5 205.96,-7.51 209.95,-9.06 213.76,-10.85"/>
<polygon fill="black" stroke="black" points="212.22,-14 222.69,-15.63 215.52,-7.83 212.22,-14"/>
<text text-anchor="middle" x="179" y="-10.3" font-family="Times,serif" font-size="14.00">&#45;0.693</text>
</g>
</g>
</svg>
