<?xml version="1.0" encoding="UTF-8" standalone="no"?>
<!DOCTYPE svg PUBLIC "-//W3C//DTD SVG 1.1//EN"
 "http://www.w3.org/Graphics/SVG/1.1/DTD/svg11.dtd">
<!-- Generated by graphviz version 2.43.0 (0)
 -->
<!-- Title: %3 Pages: 1 -->
<svg width="374pt" height="89pt"
 viewBox="0.00 0.00 374.00 89.00" xmlns="http://www.w3.org/2000/svg" xmlns:xlink="http://www.w3.org/1999/xlink">
<g id="graph0" class="graph" transform="scale(1 1) rotate(0) translate(4 85)">
<title>%3</title>
<polygon fill="white" stroke="transparent" points="-4,4 -4,-85 370,-85 370,4 -4,4"/>
<!-- 2 -->
<g id="node1" class="node">
<title>2</title>
<ellipse fill="transparent" stroke="black" cx="238" cy="-18" rx="18" ry="18"/>
<text text-anchor="middle" x="238" y="-14.3" font-family="Times,serif" font-size="14.00">b</text>
</g>
<!-- e -->
<g id="node3" class="node">
<title>e</title>
<ellipse fill="none" stroke="black" cx="340.5" cy="-45" rx="21.5" ry="21.5"/>
<ellipse fill="none" stroke="black" cx="340.5" cy="-45" rx="25.5" ry="25.5"/>
<text text-anchor="middle" x="340.5" y="-41.3" font-family="Times,serif" font-size="14.00">&lt;/s&gt;</text>
</g>
<!-- 2&#45;&gt;e -->
<g id="edge1" class="edge">
<title>2&#45;&gt;e</title>
<path fill="none" stroke="black" d="M255.6,-22.46C269.17,-26.11 288.81,-31.38 305.67,-35.91"/>
<polygon fill="black" stroke="black" points="305.17,-39.4 315.73,-38.62 306.99,-32.64 305.17,-39.4"/>
<text text-anchor="middle" x="285.5" y="-37.8" font-family="Times,serif" font-size="14.00">0.0</text>
</g>
<!-- 3 -->
<g id="node2" class="node">
<title>3</title>
<ellipse fill="black" stroke="black" cx="190.5" cy="-71" rx="1.8" ry="1.8"/>
</g>
<!-- 3&#45;&gt;e -->
<g id="edge2" class="edge">
<title>3&#45;&gt;e</title>
<path fill="none" stroke="black" d="M192.54,-70.83C200.6,-69.51 253.84,-60.74 297,-53 299.68,-52.52 302.45,-52.01 305.24,-51.5"/>
<polygon fill="black" stroke="black" points="306.05,-54.91 315.24,-49.64 304.77,-48.03 306.05,-54.91"/>
<text text-anchor="middle" x="238" y="-69.8" font-family="Times,serif" font-size="14.00">0.0</text>
</g>
<!-- s -->
<g id="node4" class="node">
<title>s</title>
<ellipse fill="none" stroke="black" stroke-width="2" cx="21.5" cy="-48" rx="21.5" ry="21.5"/>
<text text-anchor="middle" x="21.5" y="-44.3" font-family="Times,serif" font-size="14.00">&lt;s&gt;</text>
</g>
<!-- s&#45;&gt;3 -->
<g id="edge4" class="edge">
<title>s&#45;&gt;3</title>
<path fill="none" stroke="black" d="M42.98,-50.82C78.58,-55.72 150.72,-65.66 178.37,-69.47"/>
<polygon fill="black" stroke="black" points="177.96,-72.94 188.34,-70.84 178.92,-66.01 177.96,-72.94"/>
<text text-anchor="middle" x="84" y="-62.8" font-family="Times,serif" font-size="14.00">&#45;0.693</text>
</g>
<!-- 1 -->
<g id="node5" class="node">
<title>1</title>
<ellipse fill="lightblue" stroke="black" cx="143" cy="-24" rx="18" ry="18"/>
<text text-anchor="middle" x="143" y="-20.3" font-family="Times,serif" font-size="14.00">a</text>
</g>
<!-- s&#45;&gt;1 -->
<g id="edge3" class="edge">
<title>s&#45;&gt;1</title>
<path fill="none" stroke="black" d="M41.82,-40.01C47.88,-37.77 54.64,-35.53 61,-34 78.57,-29.78 98.75,-27.28 114.56,-25.84"/>
<polygon fill="black" stroke="black" points="115.05,-29.31 124.73,-25 114.48,-22.33 115.05,-29.31"/>
<text text-anchor="middle" x="84" y="-37.8" font-family="Times,serif" font-size="14.00">&#45;0.693</text>
</g>
<!-- 1&#45;&gt;2 -->
<g id="edge5" class="edge">
<title>1&#45;&gt;2</title>
<path fill="none" stroke="black" d="M161.06,-22.9C174.61,-22.03 193.82,-20.79 209.53,-19.77"/>
<polygon fill="black" stroke="black" points="209.98,-23.25 219.74,-19.11 209.53,-16.27 209.98,-23.25"/>
<text text-anchor="middle" x="190.5" y="-25.8" font-family="Times,serif" font-size="14.00">0.0</text>
</g>
</g>
</svg>
