<?xml version="1.0" encoding="UTF-8" standalone="no"?>
<!DOCTYPE svg PUBLIC "-//W3C//DTD SVG 1.1//EN"
 "http://www.w3.org/Graphics/SVG/1.1/DTD/svg11.dtd">
<!-- Generated by graphviz version 2.43.0 (0)
 -->
<!-- Title: %3 Pages: 1 -->
<svg width="416pt" height="89pt"
 viewBox="0.00 0.00 415.99 89.25" xmlns="http://www.w3.org/2000/svg" xmlns:xlink="http://www.w3.org/1999/xlink">
<g id="graph0" class="graph" transform="scale(1 1) rotate(0) translate(4 85.25)">
<title>%3</title>
<polygon fill="white" stroke="transparent" points="-4,4 -4,-85.25 411.99,-85.25 411.99,4 -4,4"/>
<!-- 2 -->
<g id="node1" class="node">
<title>2</title>
<ellipse fill="lightblue" stroke="black" cx="252.24" cy="-25.5" rx="23" ry="23"/>
<text text-anchor="middle" x="252.24" y="-21.8" font-family="Times,serif" font-size="14.00">b2</text>
</g>
<!-- 2&#45;&gt;2 -->
<g id="edge2" class="edge">
<title>2&#45;&gt;2</title>
<path fill="none" stroke="black" d="M241.1,-45.63C239.2,-56.42 242.92,-66.25 252.24,-66.25 258.36,-66.25 262.07,-62.01 263.35,-56.05"/>
<polygon fill="black" stroke="black" points="266.86,-55.64 263.39,-45.63 259.86,-55.62 266.86,-55.64"/>
<text text-anchor="middle" x="252.24" y="-70.05" font-family="Times,serif" font-size="14.00">&#45;0.693</text>
</g>
<!-- e -->
<g id="node2" class="node">
<title>e</title>
<ellipse fill="none" stroke="black" cx="382.49" cy="-25.5" rx="21.5" ry="21.5"/>
<ellipse fill="none" stroke="black" cx="382.49" cy="-25.5" rx="25.5" ry="25.5"/>
<text text-anchor="middle" x="382.49" y="-21.8" font-family="Times,serif" font-size="14.00">&lt;/s&gt;</text>
</g>
<!-- 2&#45;&gt;e -->
<g id="edge1" class="edge">
<title>2&#45;&gt;e</title>
<path fill="none" stroke="black" d="M275,-25.5C294.49,-25.5 323.45,-25.5 346.24,-25.5"/>
<polygon fill="black" stroke="black" points="346.55,-29 356.55,-25.5 346.55,-22 346.55,-29"/>
<text text-anchor="middle" x="315.99" y="-29.3" font-family="Times,serif" font-size="14.00">&#45;0.693</text>
</g>
<!-- s -->
<g id="node3" class="node">
<title>s</title>
<ellipse fill="none" stroke="black" stroke-width="2" cx="21.5" cy="-25.5" rx="21.5" ry="21.5"/>
<text text-anchor="middle" x="21.5" y="-21.8" font-family="Times,serif" font-size="14.00">&lt;s&gt;</text>
</g>
<!-- 1 -->
<g id="node4" class="node">
<title>1</title>
<ellipse fill="lightblue" stroke="black" cx="124.75" cy="-25.5" rx="23" ry="23"/>
<text text-anchor="middle" x="124.75" y="-21.8" font-family="Times,serif" font-size="14.00">b1</text>
</g>
<!-- s&#45;&gt;1 -->
<g id="edge3" class="edge">
<title>s&#45;&gt;1</title>
<path fill="none" stroke="black" d="M43.48,-25.5C57.31,-25.5 75.71,-25.5 91.4,-25.5"/>
<polygon fill="black" stroke="black" points="91.75,-29 101.75,-25.5 91.75,-22 91.75,-29"/>
<text text-anchor="middle" x="72.5" y="-29.3" font-family="Times,serif" font-size="14.00">0.0</text>
</g>
<!-- 1&#45;&gt;2 -->
<g id="edge4" class="edge">
<title>1&#45;&gt;2</title>
<path fill="none" stroke="black" d="M147.61,-25.5C167.37,-25.5 196.72,-25.5 219.15,-25.5"/>
<polygon fill="black" stroke="black" points="219.21,-29 229.21,-25.5 219.21,-22 219.21,-29"/>
<text text-anchor="middle" x="188.5" y="-29.3" font-family="Times,serif" font-size="14.00">&#45;0.693</text>
</g>
<!-- 1&#45;&gt;1 -->
<g id="edge5" class="edge">
<title>1&#45;&gt;1</title>
<path fill="none" stroke="black" d="M115.29,-46.47C113.98,-56.92 117.13,-66.25 124.75,-66.25 129.75,-66.25 132.82,-62.23 133.98,-56.51"/>
<polygon fill="black" stroke="black" points="137.48,-56.54 134.21,-46.47 130.48,-56.38 137.48,-56.54"/>
<text text-anchor="middle" x="124.75" y="-70.05" font-family="Times,serif" font-size="14.00">&#45;0.693</text>
</g>
</g>
</svg>
