<?xml version="1.0" encoding="UTF-8" standalone="no"?>
<!DOCTYPE svg PUBLIC "-//W3C//DTD SVG 1.1//EN"
 "http://www.w3.org/Graphics/SVG/1.1/DTD/svg11.dtd">
<!-- Generated by graphviz version 2.43.0 (0)
 -->
<!-- Title: %3 Pages: 1 -->
<svg width="365pt" height="59pt"
 viewBox="0.00 0.00 364.79 59.00" xmlns="http://www.w3.org/2000/svg" xmlns:xlink="http://www.w3.org/1999/xlink">
<g id="graph0" class="graph" transform="scale(1 1) rotate(0) translate(4 55)">
<title>%3</title>
<polygon fill="white" stroke="transparent" points="-4,4 -4,-55 360.79,-55 360.79,4 -4,4"/>
<!-- 2 -->
<g id="node1" class="node">
<title>2</title>
<ellipse fill="lightblue" stroke="black" cx="225.34" cy="-25.5" rx="21.4" ry="21.4"/>
<text text-anchor="middle" x="225.34" y="-21.8" font-family="Times,serif" font-size="14.00">c2</text>
</g>
<!-- e -->
<g id="node3" class="node">
<title>e</title>
<ellipse fill="none" stroke="black" cx="331.29" cy="-25.5" rx="21.5" ry="21.5"/>
<ellipse fill="none" stroke="black" cx="331.29" cy="-25.5" rx="25.5" ry="25.5"/>
<text text-anchor="middle" x="331.29" y="-21.8" font-family="Times,serif" font-size="14.00">&lt;/s&gt;</text>
</g>
<!-- 2&#45;&gt;e -->
<g id="edge3" class="edge">
<title>2&#45;&gt;e</title>
<path fill="none" stroke="black" d="M246.88,-25.5C260.76,-25.5 279.44,-25.5 295.6,-25.5"/>
<polygon fill="black" stroke="black" points="295.78,-29 305.78,-25.5 295.78,-22 295.78,-29"/>
<text text-anchor="middle" x="276.29" y="-29.3" font-family="Times,serif" font-size="14.00">0.0</text>
</g>
<!-- s -->
<g id="node2" class="node">
<title>s</title>
<ellipse fill="none" stroke="black" stroke-width="2" cx="21.5" cy="-25.5" rx="21.5" ry="21.5"/>
<text text-anchor="middle" x="21.5" y="-21.8" font-family="Times,serif" font-size="14.00">&lt;s&gt;</text>
</g>
<!-- 1 -->
<g id="node4" class="node">
<title>1</title>
<ellipse fill="lightblue" stroke="black" cx="123.45" cy="-25.5" rx="21.4" ry="21.4"/>
<text text-anchor="middle" x="123.45" y="-21.8" font-family="Times,serif" font-size="14.00">c1</text>
</g>
<!-- s&#45;&gt;1 -->
<g id="edge1" class="edge">
<title>s&#45;&gt;1</title>
<path fill="none" stroke="black" d="M43.21,-25.5C57.15,-25.5 75.77,-25.5 91.46,-25.5"/>
<polygon fill="black" stroke="black" points="91.77,-29 101.77,-25.5 91.77,-22 91.77,-29"/>
<text text-anchor="middle" x="72.5" y="-29.3" font-family="Times,serif" font-size="14.00">0.0</text>
</g>
<!-- 1&#45;&gt;2 -->
<g id="edge2" class="edge">
<title>1&#45;&gt;2</title>
<path fill="none" stroke="black" d="M145.15,-25.5C159.08,-25.5 177.69,-25.5 193.38,-25.5"/>
<polygon fill="black" stroke="black" points="193.67,-29 203.67,-25.5 193.67,-22 193.67,-29"/>
<text text-anchor="middle" x="174.4" y="-29.3" font-family="Times,serif" font-size="14.00">0.0</text>
</g>
</g>
</svg>
