<?xml version="1.0" encoding="UTF-8" standalone="no"?>
<!DOCTYPE svg PUBLIC "-//W3C//DTD SVG 1.1//EN"
 "http://www.w3.org/Graphics/SVG/1.1/DTD/svg11.dtd">
<!-- Generated by graphviz version 2.43.0 (0)
 -->
<!-- Title: %3 Pages: 1 -->
<svg width="411pt" height="88pt"
 viewBox="0.00 0.00 410.79 87.95" xmlns="http://www.w3.org/2000/svg" xmlns:xlink="http://www.w3.org/1999/xlink">
<g id="graph0" class="graph" transform="scale(1 1) rotate(0) translate(4 83.95)">
<title>%3</title>
<polygon fill="white" stroke="transparent" points="-4,4 -4,-83.95 406.79,-83.95 406.79,4 -4,4"/>
<!-- 2 -->
<g id="node1" class="node">
<title>2</title>
<ellipse fill="lightblue" stroke="black" cx="248.34" cy="-25.5" rx="21.4" ry="21.4"/>
<text text-anchor="middle" x="248.34" y="-21.8" font-family="Times,serif" font-size="14.00">c2</text>
</g>
<!-- 2&#45;&gt;2 -->
<g id="edge2" class="edge">
<title>2&#45;&gt;2</title>
<path fill="none" stroke="black" d="M237.36,-44.17C235.12,-54.93 238.78,-64.95 248.34,-64.95 254.77,-64.95 258.53,-60.43 259.63,-54.19"/>
<polygon fill="black" stroke="black" points="263.13,-54.06 259.33,-44.17 256.13,-54.27 263.13,-54.06"/>
<text text-anchor="middle" x="248.34" y="-68.75" font-family="Times,serif" font-size="14.00">&#45;0.693</text>
</g>
<!-- e -->
<g id="node2" class="node">
<title>e</title>
<ellipse fill="none" stroke="black" cx="377.29" cy="-25.5" rx="21.5" ry="21.5"/>
<ellipse fill="none" stroke="black" cx="377.29" cy="-25.5" rx="25.5" ry="25.5"/>
<text text-anchor="middle" x="377.29" y="-21.8" font-family="Times,serif" font-size="14.00">&lt;/s&gt;</text>
</g>
<!-- 2&#45;&gt;e -->
<g id="edge1" class="edge">
<title>2&#45;&gt;e</title>
<path fill="none" stroke="black" d="M270.02,-25.5C289.4,-25.5 318.73,-25.5 341.67,-25.5"/>
<polygon fill="black" stroke="black" points="341.71,-29 351.71,-25.5 341.71,-22 341.71,-29"/>
<text text-anchor="middle" x="310.79" y="-29.3" font-family="Times,serif" font-size="14.00">&#45;0.693</text>
</g>
<!-- s -->
<g id="node3" class="node">
<title>s</title>
<ellipse fill="none" stroke="black" stroke-width="2" cx="21.5" cy="-25.5" rx="21.5" ry="21.5"/>
<text text-anchor="middle" x="21.5" y="-21.8" font-family="Times,serif" font-size="14.00">&lt;s&gt;</text>
</g>
<!-- 1 -->
<g id="node4" class="node">
<title>1</title>
<ellipse fill="lightblue" stroke="black" cx="123.45" cy="-25.5" rx="21.4" ry="21.4"/>
<text text-anchor="middle" x="123.45" y="-21.8" font-family="Times,serif" font-size="14.00">c1</text>
</g>
<!-- s&#45;&gt;1 -->
<g id="edge3" class="edge">
<title>s&#45;&gt;1</title>
<path fill="none" stroke="black" d="M43.21,-25.5C57.15,-25.5 75.77,-25.5 91.46,-25.5"/>
<polygon fill="black" stroke="black" points="91.77,-29 101.77,-25.5 91.77,-22 91.77,-29"/>
<text text-anchor="middle" x="72.5" y="-29.3" font-family="Times,serif" font-size="14.00">0.0</text>
</g>
<!-- 1&#45;&gt;2 -->
<g id="edge4" class="edge">
<title>1&#45;&gt;2</title>
<path fill="none" stroke="black" d="M145.02,-25.5C164.6,-25.5 194.33,-25.5 216.7,-25.5"/>
<polygon fill="black" stroke="black" points="216.71,-29 226.71,-25.5 216.71,-22 216.71,-29"/>
<text text-anchor="middle" x="185.9" y="-29.3" font-family="Times,serif" font-size="14.00">&#45;0.693</text>
</g>
<!-- 1&#45;&gt;1 -->
<g id="edge5" class="edge">
<title>1&#45;&gt;1</title>
<path fill="none" stroke="black" d="M114.46,-44.98C112.93,-55.43 115.93,-64.95 123.45,-64.95 128.38,-64.95 131.37,-60.85 132.41,-55.08"/>
<polygon fill="black" stroke="black" points="135.91,-54.99 132.44,-44.98 128.91,-54.97 135.91,-54.99"/>
<text text-anchor="middle" x="123.45" y="-68.75" font-family="Times,serif" font-size="14.00">&#45;0.693</text>
</g>
</g>
</svg>
