<?xml version="1.0" encoding="UTF-8" standalone="no"?>
<!DOCTYPE svg PUBLIC "-//W3C//DTD SVG 1.1//EN"
 "http://www.w3.org/Graphics/SVG/1.1/DTD/svg11.dtd">
<!-- Generated by graphviz version 2.43.0 (0)
 -->
<!-- Title: %3 Pages: 1 -->
<svg width="540pt" height="89pt"
 viewBox="0.00 0.00 539.59 88.60" xmlns="http://www.w3.org/2000/svg" xmlns:xlink="http://www.w3.org/1999/xlink">
<g id="graph0" class="graph" transform="scale(1 1) rotate(0) translate(4 84.6)">
<title>%3</title>
<polygon fill="white" stroke="transparent" points="-4,4 -4,-84.6 535.59,-84.6 535.59,4 -4,4"/>
<!-- 2 -->
<g id="node1" class="node">
<title>2</title>
<ellipse fill="lightblue" stroke="black" cx="250.29" cy="-25.5" rx="22.2" ry="22.2"/>
<text text-anchor="middle" x="250.29" y="-21.8" font-family="Times,serif" font-size="14.00">a2</text>
</g>
<!-- 2&#45;&gt;2 -->
<g id="edge2" class="edge">
<title>2&#45;&gt;2</title>
<path fill="none" stroke="black" d="M239.23,-44.89C237.16,-55.67 240.85,-65.6 250.29,-65.6 256.64,-65.6 260.39,-61.12 261.54,-54.91"/>
<polygon fill="black" stroke="black" points="265.04,-54.83 261.36,-44.89 258.04,-54.95 265.04,-54.83"/>
<text text-anchor="middle" x="250.29" y="-69.4" font-family="Times,serif" font-size="14.00">&#45;0.693</text>
</g>
<!-- 3 -->
<g id="node2" class="node">
<title>3</title>
<ellipse fill="lightblue" stroke="black" cx="376.49" cy="-25.5" rx="22.2" ry="22.2"/>
<text text-anchor="middle" x="376.49" y="-21.8" font-family="Times,serif" font-size="14.00">a3</text>
</g>
<!-- 2&#45;&gt;3 -->
<g id="edge1" class="edge">
<title>2&#45;&gt;3</title>
<path fill="none" stroke="black" d="M272.64,-25.5C292.28,-25.5 321.65,-25.5 343.99,-25.5"/>
<polygon fill="black" stroke="black" points="344,-29 354,-25.5 344,-22 344,-29"/>
<text text-anchor="middle" x="313.39" y="-29.3" font-family="Times,serif" font-size="14.00">&#45;0.693</text>
</g>
<!-- 3&#45;&gt;3 -->
<g id="edge4" class="edge">
<title>3&#45;&gt;3</title>
<path fill="none" stroke="black" d="M365.42,-44.89C363.36,-55.67 367.04,-65.6 376.49,-65.6 382.84,-65.6 386.58,-61.12 387.73,-54.91"/>
<polygon fill="black" stroke="black" points="391.23,-54.83 387.56,-44.89 384.23,-54.95 391.23,-54.83"/>
<text text-anchor="middle" x="376.49" y="-69.4" font-family="Times,serif" font-size="14.00">&#45;0.693</text>
</g>
<!-- e -->
<g id="node3" class="node">
<title>e</title>
<ellipse fill="none" stroke="black" cx="506.09" cy="-25.5" rx="21.5" ry="21.5"/>
<ellipse fill="none" stroke="black" cx="506.09" cy="-25.5" rx="25.5" ry="25.5"/>
<text text-anchor="middle" x="506.09" y="-21.8" font-family="Times,serif" font-size="14.00">&lt;/s&gt;</text>
</g>
<!-- 3&#45;&gt;e -->
<g id="edge3" class="edge">
<title>3&#45;&gt;e</title>
<path fill="none" stroke="black" d="M398.85,-25.5C418.2,-25.5 447.09,-25.5 469.86,-25.5"/>
<polygon fill="black" stroke="black" points="470.16,-29 480.16,-25.5 470.16,-22 470.16,-29"/>
<text text-anchor="middle" x="439.59" y="-29.3" font-family="Times,serif" font-size="14.00">&#45;0.693</text>
</g>
<!-- s -->
<g id="node4" class="node">
<title>s</title>
<ellipse fill="none" stroke="black" stroke-width="2" cx="21.5" cy="-25.5" rx="21.5" ry="21.5"/>
<text text-anchor="middle" x="21.5" y="-21.8" font-family="Times,serif" font-size="14.00">&lt;s&gt;</text>
</g>
<!-- 1 -->
<g id="node5" class="node">
<title>1</title>
<ellipse fill="lightblue" stroke="black" cx="124.1" cy="-25.5" rx="22.2" ry="22.2"/>
<text text-anchor="middle" x="124.1" y="-21.8" font-family="Times,serif" font-size="14.00">a1</text>
</g>
<!-- s&#45;&gt;1 -->
<g id="edge5" class="edge">
<title>s&#45;&gt;1</title>
<path fill="none" stroke="black" d="M43.34,-25.5C57.28,-25.5 75.87,-25.5 91.6,-25.5"/>
<polygon fill="black" stroke="black" points="91.93,-29 101.93,-25.5 91.93,-22 91.93,-29"/>
<text text-anchor="middle" x="72.5" y="-29.3" font-family="Times,serif" font-size="14.00">0.0</text>
</g>
<!-- 1&#45;&gt;2 -->
<g id="edge6" class="edge">
<title>1&#45;&gt;2</title>
<path fill="none" stroke="black" d="M146.45,-25.5C166.09,-25.5 195.46,-25.5 217.79,-25.5"/>
<polygon fill="black" stroke="black" points="217.81,-29 227.81,-25.5 217.81,-22 217.81,-29"/>
<text text-anchor="middle" x="187.2" y="-29.3" font-family="Times,serif" font-size="14.00">&#45;0.693</text>
</g>
<!-- 1&#45;&gt;1 -->
<g id="edge7" class="edge">
<title>1&#45;&gt;1</title>
<path fill="none" stroke="black" d="M115.05,-45.72C113.66,-56.17 116.68,-65.6 124.1,-65.6 128.97,-65.6 131.94,-61.54 133.02,-55.79"/>
<polygon fill="black" stroke="black" points="136.52,-55.76 133.14,-45.72 129.52,-55.67 136.52,-55.76"/>
<text text-anchor="middle" x="124.1" y="-69.4" font-family="Times,serif" font-size="14.00">&#45;0.693</text>
</g>
</g>
</svg>
