<?xml version="1.0" encoding="UTF-8" standalone="no"?>
<!DOCTYPE svg PUBLIC "-//W3C//DTD SVG 1.1//EN"
 "http://www.w3.org/Graphics/SVG/1.1/DTD/svg11.dtd">
<!-- Generated by graphviz version 2.43.0 (0)
 -->
<!-- Title: %3 Pages: 1 -->
<svg width="387pt" height="94pt"
 viewBox="0.00 0.00 387.00 94.00" xmlns="http://www.w3.org/2000/svg" xmlns:xlink="http://www.w3.org/1999/xlink">
<g id="graph0" class="graph" transform="scale(1 1) rotate(0) translate(4 90)">
<title>%3</title>
<polygon fill="white" stroke="transparent" points="-4,4 -4,-90 383,-90 383,4 -4,4"/>
<!-- 2 -->
<g id="node1" class="node">
<title>2</title>
<ellipse fill="transparent" stroke="black" cx="143" cy="-66" rx="18" ry="18"/>
<text text-anchor="middle" x="143" y="-62.3" font-family="Times,serif" font-size="14.00">a</text>
</g>
<!-- 1 -->
<g id="node5" class="node">
<title>1</title>
<ellipse fill="transparent" stroke="black" cx="251" cy="-68" rx="18" ry="18"/>
<text text-anchor="middle" x="251" y="-64.3" font-family="Times,serif" font-size="14.00">b</text>
</g>
<!-- 2&#45;&gt;1 -->
<g id="edge1" class="edge">
<title>2&#45;&gt;1</title>
<path fill="none" stroke="black" d="M161.03,-66.32C177.62,-66.63 203.12,-67.12 222.57,-67.48"/>
<polygon fill="black" stroke="black" points="222.6,-70.98 232.66,-67.67 222.73,-63.98 222.6,-70.98"/>
<text text-anchor="middle" x="197" y="-70.8" font-family="Times,serif" font-size="14.00">0.0</text>
</g>
<!-- 3 -->
<g id="node2" class="node">
<title>3</title>
<ellipse fill="transparent" stroke="black" cx="197" cy="-18" rx="18" ry="18"/>
<text text-anchor="middle" x="197" y="-14.3" font-family="Times,serif" font-size="14.00">c</text>
</g>
<!-- e -->
<g id="node3" class="node">
<title>e</title>
<ellipse fill="none" stroke="black" cx="353.5" cy="-33" rx="21.5" ry="21.5"/>
<ellipse fill="none" stroke="black" cx="353.5" cy="-33" rx="25.5" ry="25.5"/>
<text text-anchor="middle" x="353.5" y="-29.3" font-family="Times,serif" font-size="14.00">&lt;/s&gt;</text>
</g>
<!-- 3&#45;&gt;e -->
<g id="edge2" class="edge">
<title>3&#45;&gt;e</title>
<path fill="none" stroke="black" d="M215.12,-19.66C239.76,-22.05 285.74,-26.52 317.69,-29.62"/>
<polygon fill="black" stroke="black" points="317.64,-33.13 327.93,-30.61 318.32,-26.16 317.64,-33.13"/>
<text text-anchor="middle" x="251" y="-27.8" font-family="Times,serif" font-size="14.00">0.0</text>
</g>
<!-- s -->
<g id="node4" class="node">
<title>s</title>
<ellipse fill="none" stroke="black" stroke-width="2" cx="21.5" cy="-41" rx="21.5" ry="21.5"/>
<text text-anchor="middle" x="21.5" y="-37.3" font-family="Times,serif" font-size="14.00">&lt;s&gt;</text>
</g>
<!-- s&#45;&gt;2 -->
<g id="edge3" class="edge">
<title>s&#45;&gt;2</title>
<path fill="none" stroke="black" d="M42.77,-45.24C62.69,-49.41 93.19,-55.79 115.12,-60.38"/>
<polygon fill="black" stroke="black" points="114.61,-63.85 125.11,-62.47 116.04,-56.99 114.61,-63.85"/>
<text text-anchor="middle" x="84" y="-61.8" font-family="Times,serif" font-size="14.00">&#45;0.693</text>
</g>
<!-- s&#45;&gt;3 -->
<g id="edge4" class="edge">
<title>s&#45;&gt;3</title>
<path fill="none" stroke="black" d="M42.31,-34.56C48.26,-32.84 54.85,-31.14 61,-30 97.97,-23.14 141.38,-20.17 168.79,-18.9"/>
<polygon fill="black" stroke="black" points="168.97,-22.4 178.81,-18.49 168.67,-15.41 168.97,-22.4"/>
<text text-anchor="middle" x="84" y="-33.8" font-family="Times,serif" font-size="14.00">&#45;0.693</text>
</g>
<!-- 1&#45;&gt;e -->
<g id="edge5" class="edge">
<title>1&#45;&gt;e</title>
<path fill="none" stroke="black" d="M268.15,-62.38C281.97,-57.56 302.31,-50.48 319.55,-44.47"/>
<polygon fill="black" stroke="black" points="320.98,-47.68 329.28,-41.09 318.68,-41.07 320.98,-47.68"/>
<text text-anchor="middle" x="298.5" y="-58.8" font-family="Times,serif" font-size="14.00">0.0</text>
</g>
</g>
</svg>
