<?xml version="1.0" encoding="UTF-8" standalone="no"?>
<!DOCTYPE svg PUBLIC "-//W3C//DTD SVG 1.1//EN"
 "http://www.w3.org/Graphics/SVG/1.1/DTD/svg11.dtd">
<!-- Generated by graphviz version 2.43.0 (0)
 -->
<!-- Title: %3 Pages: 1 -->
<svg width="471pt" height="59pt"
 viewBox="0.00 0.00 470.59 59.00" xmlns="http://www.w3.org/2000/svg" xmlns:xlink="http://www.w3.org/1999/xlink">
<g id="graph0" class="graph" transform="scale(1 1) rotate(0) translate(4 55)">
<title>%3</title>
<polygon fill="white" stroke="transparent" points="-4,4 -4,-55 466.59,-55 466.59,4 -4,4"/>
<!-- 2 -->
<g id="node1" class="node">
<title>2</title>
<ellipse fill="lightblue" stroke="black" cx="227.29" cy="-25.5" rx="22.2" ry="22.2"/>
<text text-anchor="middle" x="227.29" y="-21.8" font-family="Times,serif" font-size="14.00">a2</text>
</g>
<!-- 3 -->
<g id="node2" class="node">
<title>3</title>
<ellipse fill="lightblue" stroke="black" cx="330.49" cy="-25.5" rx="22.2" ry="22.2"/>
<text text-anchor="middle" x="330.49" y="-21.8" font-family="Times,serif" font-size="14.00">a3</text>
</g>
<!-- 2&#45;&gt;3 -->
<g id="edge3" class="edge">
<title>2&#45;&gt;3</title>
<path fill="none" stroke="black" d="M249.76,-25.5C263.71,-25.5 282.15,-25.5 297.78,-25.5"/>
<polygon fill="black" stroke="black" points="298.06,-29 308.06,-25.5 298.06,-22 298.06,-29"/>
<text text-anchor="middle" x="278.89" y="-29.3" font-family="Times,serif" font-size="14.00">0.0</text>
</g>
<!-- e -->
<g id="node4" class="node">
<title>e</title>
<ellipse fill="none" stroke="black" cx="437.09" cy="-25.5" rx="21.5" ry="21.5"/>
<ellipse fill="none" stroke="black" cx="437.09" cy="-25.5" rx="25.5" ry="25.5"/>
<text text-anchor="middle" x="437.09" y="-21.8" font-family="Times,serif" font-size="14.00">&lt;/s&gt;</text>
</g>
<!-- 3&#45;&gt;e -->
<g id="edge4" class="edge">
<title>3&#45;&gt;e</title>
<path fill="none" stroke="black" d="M352.66,-25.5C366.56,-25.5 385.09,-25.5 401.15,-25.5"/>
<polygon fill="black" stroke="black" points="401.28,-29 411.28,-25.5 401.28,-22 401.28,-29"/>
<text text-anchor="middle" x="382.09" y="-29.3" font-family="Times,serif" font-size="14.00">0.0</text>
</g>
<!-- s -->
<g id="node3" class="node">
<title>s</title>
<ellipse fill="none" stroke="black" stroke-width="2" cx="21.5" cy="-25.5" rx="21.5" ry="21.5"/>
<text text-anchor="middle" x="21.5" y="-21.8" font-family="Times,serif" font-size="14.00">&lt;s&gt;</text>
</g>
<!-- 1 -->
<g id="node5" class="node">
<title>1</title>
<ellipse fill="lightblue" stroke="black" cx="124.1" cy="-25.5" rx="22.2" ry="22.2"/>
<text text-anchor="middle" x="124.1" y="-21.8" font-family="Times,serif" font-size="14.00">a1</text>
</g>
<!-- s&#45;&gt;1 -->
<g id="edge1" class="edge">
<title>s&#45;&gt;1</title>
<path fill="none" stroke="black" d="M43.34,-25.5C57.28,-25.5 75.87,-25.5 91.6,-25.5"/>
<polygon fill="black" stroke="black" points="91.93,-29 101.93,-25.5 91.93,-22 91.93,-29"/>
<text text-anchor="middle" x="72.5" y="-29.3" font-family="Times,serif" font-size="14.00">0.0</text>
</g>
<!-- 1&#45;&gt;2 -->
<g id="edge2" class="edge">
<title>1&#45;&gt;2</title>
<path fill="none" stroke="black" d="M146.56,-25.5C160.51,-25.5 178.95,-25.5 194.58,-25.5"/>
<polygon fill="black" stroke="black" points="194.86,-29 204.86,-25.5 194.86,-22 194.86,-29"/>
<text text-anchor="middle" x="175.7" y="-29.3" font-family="Times,serif" font-size="14.00">0.0</text>
</g>
</g>
</svg>
