<?xml version="1.0" encoding="UTF-8" standalone="no"?>
<!DOCTYPE svg PUBLIC "-//W3C//DTD SVG 1.1//EN"
 "http://www.w3.org/Graphics/SVG/1.1/DTD/svg11.dtd">
<!-- Generated by graphviz version 2.43.0 (0)
 -->
<!-- Title: %3 Pages: 1 -->
<svg width="761pt" height="59pt"
 viewBox="0.00 0.00 761.20 59.00" xmlns="http://www.w3.org/2000/svg" xmlns:xlink="http://www.w3.org/1999/xlink">
<g id="graph0" class="graph" transform="scale(1 1) rotate(0) translate(4 55)">
<title>%3</title>
<polygon fill="white" stroke="transparent" points="-4,4 -4,-55 757.2,-55 757.2,4 -4,4"/>
<!-- 7 -->
<g id="node1" class="node">
<title>7</title>
<ellipse fill="transparent" stroke="black" cx="625.2" cy="-25.5" rx="18" ry="18"/>
<text text-anchor="middle" x="625.2" y="-21.8" font-family="Times,serif" font-size="14.00">e</text>
</g>
<!-- e -->
<g id="node5" class="node">
<title>e</title>
<ellipse fill="none" stroke="black" cx="727.7" cy="-25.5" rx="21.5" ry="21.5"/>
<ellipse fill="none" stroke="black" cx="727.7" cy="-25.5" rx="25.5" ry="25.5"/>
<text text-anchor="middle" x="727.7" y="-21.8" font-family="Times,serif" font-size="14.00">&lt;/s&gt;</text>
</g>
<!-- 7&#45;&gt;e -->
<g id="edge1" class="edge">
<title>7&#45;&gt;e</title>
<path fill="none" stroke="black" d="M643.25,-25.5C656.48,-25.5 675.27,-25.5 691.67,-25.5"/>
<polygon fill="black" stroke="black" points="692.02,-29 702.02,-25.5 692.02,-22 692.02,-29"/>
<text text-anchor="middle" x="672.7" y="-29.3" font-family="Times,serif" font-size="14.00">0.0</text>
</g>
<!-- 4 -->
<g id="node2" class="node">
<title>4</title>
<ellipse fill="transparent" stroke="black" cx="120" cy="-25.5" rx="18" ry="18"/>
<text text-anchor="middle" x="120" y="-21.8" font-family="Times,serif" font-size="14.00">a</text>
</g>
<!-- 3 -->
<g id="node4" class="node">
<title>3</title>
<ellipse fill="transparent" stroke="black" cx="215" cy="-25.5" rx="18" ry="18"/>
<text text-anchor="middle" x="215" y="-21.8" font-family="Times,serif" font-size="14.00">b</text>
</g>
<!-- 4&#45;&gt;3 -->
<g id="edge2" class="edge">
<title>4&#45;&gt;3</title>
<path fill="none" stroke="black" d="M138.06,-25.5C151.61,-25.5 170.82,-25.5 186.53,-25.5"/>
<polygon fill="black" stroke="black" points="186.74,-29 196.74,-25.5 186.74,-22 186.74,-29"/>
<text text-anchor="middle" x="167.5" y="-29.3" font-family="Times,serif" font-size="14.00">0.0</text>
</g>
<!-- 2 -->
<g id="node3" class="node">
<title>2</title>
<ellipse fill="transparent" stroke="black" cx="467.6" cy="-25.5" rx="18" ry="18"/>
<text text-anchor="middle" x="467.6" y="-21.8" font-family="Times,serif" font-size="14.00">d</text>
</g>
<!-- 1 -->
<g id="node9" class="node">
<title>1</title>
<ellipse fill="black" stroke="black" cx="546.4" cy="-25.5" rx="1.8" ry="1.8"/>
</g>
<!-- 2&#45;&gt;1 -->
<g id="edge3" class="edge">
<title>2&#45;&gt;1</title>
<path fill="none" stroke="black" d="M485.64,-25.5C500.54,-25.5 521.73,-25.5 534.46,-25.5"/>
<polygon fill="black" stroke="black" points="534.46,-29 544.46,-25.5 534.46,-22 534.46,-29"/>
<text text-anchor="middle" x="515.1" y="-29.3" font-family="Times,serif" font-size="14.00">0.0</text>
</g>
<!-- 6 -->
<g id="node8" class="node">
<title>6</title>
<ellipse fill="black" stroke="black" cx="293.8" cy="-25.5" rx="1.8" ry="1.8"/>
</g>
<!-- 3&#45;&gt;6 -->
<g id="edge4" class="edge">
<title>3&#45;&gt;6</title>
<path fill="none" stroke="black" d="M233.04,-25.5C247.94,-25.5 269.13,-25.5 281.86,-25.5"/>
<polygon fill="black" stroke="black" points="281.86,-29 291.86,-25.5 281.86,-22 281.86,-29"/>
<text text-anchor="middle" x="262.5" y="-29.3" font-family="Times,serif" font-size="14.00">0.0</text>
</g>
<!-- s -->
<g id="node6" class="node">
<title>s</title>
<ellipse fill="none" stroke="black" stroke-width="2" cx="21.5" cy="-25.5" rx="21.5" ry="21.5"/>
<text text-anchor="middle" x="21.5" y="-21.8" font-family="Times,serif" font-size="14.00">&lt;s&gt;</text>
</g>
<!-- s&#45;&gt;4 -->
<g id="edge5" class="edge">
<title>s&#45;&gt;4</title>
<path fill="none" stroke="black" d="M43.44,-25.5C57.53,-25.5 76.27,-25.5 91.55,-25.5"/>
<polygon fill="black" stroke="black" points="91.96,-29 101.96,-25.5 91.96,-22 91.96,-29"/>
<text text-anchor="middle" x="72.5" y="-29.3" font-family="Times,serif" font-size="14.00">0.0</text>
</g>
<!-- 5 -->
<g id="node7" class="node">
<title>5</title>
<ellipse fill="transparent" stroke="black" cx="372.6" cy="-25.5" rx="18" ry="18"/>
<text text-anchor="middle" x="372.6" y="-21.8" font-family="Times,serif" font-size="14.00">c</text>
</g>
<!-- 5&#45;&gt;2 -->
<g id="edge6" class="edge">
<title>5&#45;&gt;2</title>
<path fill="none" stroke="black" d="M390.66,-25.5C404.21,-25.5 423.42,-25.5 439.13,-25.5"/>
<polygon fill="black" stroke="black" points="439.34,-29 449.34,-25.5 439.34,-22 439.34,-29"/>
<text text-anchor="middle" x="420.1" y="-29.3" font-family="Times,serif" font-size="14.00">0.0</text>
</g>
<!-- 6&#45;&gt;5 -->
<g id="edge7" class="edge">
<title>6&#45;&gt;5</title>
<path fill="none" stroke="black" d="M295.66,-25.5C300.47,-25.5 324.43,-25.5 344.17,-25.5"/>
<polygon fill="black" stroke="black" points="344.27,-29 354.27,-25.5 344.27,-22 344.27,-29"/>
<text text-anchor="middle" x="325.1" y="-29.3" font-family="Times,serif" font-size="14.00">0.0</text>
</g>
<!-- 1&#45;&gt;7 -->
<g id="edge8" class="edge">
<title>1&#45;&gt;7</title>
<path fill="none" stroke="black" d="M548.26,-25.5C553.07,-25.5 577.03,-25.5 596.77,-25.5"/>
<polygon fill="black" stroke="black" points="596.87,-29 606.87,-25.5 596.87,-22 596.87,-29"/>
<text text-anchor="middle" x="577.7" y="-29.3" font-family="Times,serif" font-size="14.00">0.0</text>
</g>
</g>
</svg>
