<?xml version="1.0" encoding="UTF-8" standalone="no"?>
<!DOCTYPE svg PUBLIC "-//W3C//DTD SVG 1.1//EN"
 "http://www.w3.org/Graphics/SVG/1.1/DTD/svg11.dtd">
<!-- Generated by graphviz version 2.43.0 (0)
 -->
<!-- Title: %3 Pages: 1 -->
<svg width="365pt" height="226pt"
 viewBox="0.00 0.00 364.60 225.50" xmlns="http://www.w3.org/2000/svg" xmlns:xlink="http://www.w3.org/1999/xlink">
<g id="graph0" class="graph" transform="scale(1 1) rotate(0) translate(4 221.5)">
<title>%3</title>
<polygon fill="white" stroke="transparent" points="-4,4 -4,-221.5 360.6,-221.5 360.6,4 -4,4"/>
<!-- e -->
<g id="node1" class="node">
<title>e</title>
<ellipse fill="none" stroke="black" cx="245.5" cy="-25.5" rx="21.5" ry="21.5"/>
<ellipse fill="none" stroke="black" cx="245.5" cy="-25.5" rx="25.5" ry="25.5"/>
<text text-anchor="middle" x="245.5" y="-21.8" font-family="Times,serif" font-size="14.00">&lt;/s&gt;</text>
</g>
<!-- s -->
<g id="node2" class="node">
<title>s</title>
<ellipse fill="none" stroke="black" stroke-width="2" cx="21.5" cy="-138.5" rx="21.5" ry="21.5"/>
<text text-anchor="middle" x="21.5" y="-134.8" font-family="Times,serif" font-size="14.00">&lt;s&gt;</text>
</g>
<!-- 1 -->
<g id="node5" class="node">
<title>1</title>
<ellipse fill="lightblue" stroke="black" cx="120" cy="-138.5" rx="18" ry="18"/>
<text text-anchor="middle" x="120" y="-134.8" font-family="Times,serif" font-size="14.00">1</text>
</g>
<!-- s&#45;&gt;1 -->
<g id="edge1" class="edge">
<title>s&#45;&gt;1</title>
<path fill="none" stroke="black" d="M43.44,-138.5C57.53,-138.5 76.27,-138.5 91.55,-138.5"/>
<polygon fill="black" stroke="black" points="91.96,-142 101.96,-138.5 91.96,-135 91.96,-142"/>
<text text-anchor="middle" x="72.5" y="-142.3" font-family="Times,serif" font-size="14.00">0.0</text>
</g>
<!-- 2 -->
<g id="node3" class="node">
<title>2</title>
<ellipse fill="transparent" stroke="black" cx="245.5" cy="-199.5" rx="18" ry="18"/>
<text text-anchor="middle" x="245.5" y="-195.8" font-family="Times,serif" font-size="14.00">a</text>
</g>
<!-- 3 -->
<g id="node4" class="node">
<title>3</title>
<ellipse fill="black" stroke="black" cx="354.8" cy="-154.5" rx="1.8" ry="1.8"/>
</g>
<!-- 2&#45;&gt;3 -->
<g id="edge3" class="edge">
<title>2&#45;&gt;3</title>
<path fill="none" stroke="black" d="M263.71,-201.43C282.79,-202.67 313.67,-201.9 335,-187.5 342.7,-182.3 347.62,-172.82 350.49,-165.36"/>
<polygon fill="black" stroke="black" points="353.83,-166.38 353.5,-155.79 347.16,-164.28 353.83,-166.38"/>
<text text-anchor="middle" x="312" y="-205.3" font-family="Times,serif" font-size="14.00">&#45;0.693</text>
</g>
<!-- 2&#45;&gt;1 -->
<g id="edge2" class="edge">
<title>2&#45;&gt;1</title>
<path fill="none" stroke="black" d="M230.3,-189.63C222.21,-184.22 211.76,-177.6 202,-172.5 183.98,-163.08 162.76,-154.25 146.56,-147.95"/>
<polygon fill="black" stroke="black" points="147.79,-144.67 137.2,-144.37 145.29,-151.21 147.79,-144.67"/>
<text text-anchor="middle" x="179" y="-176.3" font-family="Times,serif" font-size="14.00">&#45;0.693</text>
</g>
<!-- 3&#45;&gt;2 -->
<g id="edge5" class="edge">
<title>3&#45;&gt;2</title>
<path fill="none" stroke="black" d="M352.84,-154.56C346.79,-154.95 313.37,-157.58 289,-168.5 281.55,-171.84 274.12,-176.63 267.61,-181.44"/>
<polygon fill="black" stroke="black" points="265.09,-178.97 259.38,-187.89 269.41,-184.48 265.09,-178.97"/>
<text text-anchor="middle" x="312" y="-172.3" font-family="Times,serif" font-size="14.00">&#45;0.693</text>
</g>
<!-- 3&#45;&gt;1 -->
<g id="edge4" class="edge">
<title>3&#45;&gt;1</title>
<path fill="none" stroke="black" d="M353.32,-153.14C351.62,-148.46 345.34,-132.83 335,-124.5 311.46,-105.54 300.78,-106.69 271,-101.5 219.65,-92.55 204.73,-106 156,-124.5 152.88,-125.68 149.61,-126.95 146.38,-128.22"/>
<polygon fill="black" stroke="black" points="144.98,-125.02 136.98,-131.97 147.57,-131.52 144.98,-125.02"/>
<text text-anchor="middle" x="245.5" y="-105.3" font-family="Times,serif" font-size="14.00">&#45;0.693</text>
</g>
<!-- 1&#45;&gt;e -->
<g id="edge8" class="edge">
<title>1&#45;&gt;e</title>
<path fill="none" stroke="black" d="M124.47,-120.89C128.88,-102.93 138.16,-75.38 156,-58.5 170.81,-44.49 192.1,-36.31 210.09,-31.59"/>
<polygon fill="black" stroke="black" points="211.03,-34.97 219.95,-29.26 209.41,-28.16 211.03,-34.97"/>
<text text-anchor="middle" x="179" y="-62.3" font-family="Times,serif" font-size="14.00">&#45;1.099</text>
</g>
<!-- 1&#45;&gt;2 -->
<g id="edge6" class="edge">
<title>1&#45;&gt;2</title>
<path fill="none" stroke="black" d="M128.33,-154.91C134.17,-166 143.47,-179.94 156,-187.5 174.42,-198.61 198.88,-201.2 217.41,-201.25"/>
<polygon fill="black" stroke="black" points="217.63,-204.74 227.55,-201.02 217.47,-197.74 217.63,-204.74"/>
<text text-anchor="middle" x="179" y="-205.3" font-family="Times,serif" font-size="14.00">&#45;1.099</text>
</g>
<!-- 1&#45;&gt;3 -->
<g id="edge7" class="edge">
<title>1&#45;&gt;3</title>
<path fill="none" stroke="black" d="M138.12,-139.68C183.36,-142.79 305.17,-151.16 342.66,-153.73"/>
<polygon fill="black" stroke="black" points="342.54,-157.23 352.76,-154.43 343.02,-150.25 342.54,-157.23"/>
<text text-anchor="middle" x="245.5" y="-153.3" font-family="Times,serif" font-size="14.00">&#45;1.099</text>
</g>
</g>
</svg>
