<?xml version="1.0" encoding="UTF-8" standalone="no"?>
<!DOCTYPE svg PUBLIC "-//W3C//DTD SVG 1.1//EN"
 "http://www.w3.org/Graphics/SVG/1.1/DTD/svg11.dtd">
<!-- Generated by graphviz version 2.43.0 (0)
 -->
<!-- Title: %3 Pages: 1 -->
<svg width="304pt" height="131pt"
 viewBox="0.00 0.00 303.89 131.15" xmlns="http://www.w3.org/2000/svg" xmlns:xlink="http://www.w3.org/1999/xlink">
<g id="graph0" class="graph" transform="scale(1 1) rotate(0) translate(4 127.15)">
<title>%3</title>
<polygon fill="white" stroke="transparent" points="-4,4 -4,-127.15 299.89,-127.15 299.89,4 -4,4"/>
<!-- 1 -->
<g id="node1" class="node">
<title>1</title>
<ellipse fill="none" stroke="black" stroke-width="2" cx="33.8" cy="-37.15" rx="33.6" ry="33.6"/>
<text text-anchor="middle" x="33.8" y="-33.45" font-family="Times,serif" font-size="14.00">a/1.0</text>
</g>
<!-- 2 -->
<g id="node2" class="node">
<title>2</title>
<ellipse fill="none" stroke="black" cx="144.59" cy="-72.15" rx="18" ry="18"/>
<text text-anchor="middle" x="144.59" y="-68.45" font-family="Times,serif" font-size="14.00">b</text>
</g>
<!-- 1&#45;&gt;2 -->
<g id="edge1" class="edge">
<title>1&#45;&gt;2</title>
<path fill="none" stroke="black" d="M66.27,-47.27C82.48,-52.49 102.02,-58.77 117.4,-63.72"/>
<polygon fill="black" stroke="black" points="116.71,-67.17 127.3,-66.9 118.85,-60.51 116.71,-67.17"/>
<text text-anchor="middle" x="97.09" y="-63.95" font-family="Times,serif" font-size="14.00">1.0</text>
</g>
<!-- 2&#45;&gt;2 -->
<g id="edge2" class="edge">
<title>2&#45;&gt;2</title>
<path fill="none" stroke="black" d="M136.58,-88.44C134.64,-98.54 137.32,-108.15 144.59,-108.15 149.26,-108.15 152.03,-104.2 152.91,-98.71"/>
<polygon fill="black" stroke="black" points="156.4,-98.33 152.61,-88.44 149.4,-98.54 156.4,-98.33"/>
<text text-anchor="middle" x="144.59" y="-111.95" font-family="Times,serif" font-size="14.00">1.0</text>
</g>
<!-- 3 -->
<g id="node3" class="node">
<title>3</title>
<ellipse fill="none" stroke="black" cx="258.74" cy="-37.15" rx="33.28" ry="33.28"/>
<ellipse fill="none" stroke="black" cx="258.74" cy="-37.15" rx="37.29" ry="37.29"/>
<text text-anchor="middle" x="258.74" y="-33.45" font-family="Times,serif" font-size="14.00">c/1.0</text>
</g>
<!-- 2&#45;&gt;3 -->
<g id="edge3" class="edge">
<title>2&#45;&gt;3</title>
<path fill="none" stroke="black" d="M162.14,-66.98C175.61,-62.78 195.27,-56.64 213.26,-51.03"/>
<polygon fill="black" stroke="black" points="214.54,-54.3 223.04,-47.98 212.45,-47.62 214.54,-54.3"/>
<text text-anchor="middle" x="192.09" y="-63.95" font-family="Times,serif" font-size="14.00">1.0</text>
</g>
<!-- 3&#45;&gt;1 -->
<g id="edge4" class="edge">
<title>3&#45;&gt;1</title>
<path fill="none" stroke="black" d="M221.57,-33.44C195.24,-31.17 158.72,-28.92 126.59,-30.15 110.63,-30.75 93.14,-31.95 77.75,-33.19"/>
<polygon fill="black" stroke="black" points="77.15,-29.73 67.48,-34.05 77.73,-36.71 77.15,-29.73"/>
<text text-anchor="middle" x="144.59" y="-33.95" font-family="Times,serif" font-size="14.00">1.0</text>
</g>
</g>
</svg>
