<?xml version="1.0" encoding="UTF-8" standalone="no"?>
<!DOCTYPE svg PUBLIC "-//W3C//DTD SVG 1.1//EN"
 "http://www.w3.org/Graphics/SVG/1.1/DTD/svg11.dtd">
<!-- Generated by graphviz version 2.46.0 (20210118.1747)
 -->
<!-- Pages: 1 -->
<svg width="162pt" height="98pt"
 viewBox="0.00 0.00 161.92 97.55" xmlns="http://www.w3.org/2000/svg" xmlns:xlink="http://www.w3.org/1999/xlink">
<g id="graph0" class="graph" transform="scale(1 1) rotate(0) translate(4 93.55)">
<polygon fill="white" stroke="transparent" points="-4,4 -4,-93.55 157.92,-93.55 157.92,4 -4,4"/>
<!-- 1 -->
<g id="node1" class="node">
<title>1</title>
<ellipse fill="lightblue" stroke="black" stroke-width="2" cx="22.84" cy="-27.38" rx="22.67" ry="22.67"/>
<text text-anchor="middle" x="22.84" y="-23.18" font-family="Times,serif" font-size="14.00">a:1</text>
</g>
<!-- 2 -->
<g id="node2" class="node">
<title>2</title>
<ellipse fill="lightblue" stroke="black" cx="126.55" cy="-27.38" rx="23.27" ry="23.27"/>
<ellipse fill="none" stroke="black" cx="126.55" cy="-27.38" rx="27.25" ry="27.25"/>
<text text-anchor="middle" x="126.55" y="-23.18" font-family="Times,serif" font-size="14.00">b:2</text>
</g>
<!-- 1&#45;&gt;2 -->
<g id="edge1" class="edge">
<title>1&#45;&gt;2</title>
<path fill="none" stroke="black" d="M45.91,-27.38C58.41,-27.38 74.38,-27.38 88.73,-27.38"/>
<polygon fill="black" stroke="black" points="88.82,-30.88 98.82,-27.38 88.82,-23.88 88.82,-30.88"/>
<text text-anchor="middle" x="72.42" y="-31.58" font-family="Times,serif" font-size="14.00">0.0</text>
</g>
<!-- 2&#45;&gt;1 -->
<g id="edge3" class="edge">
<title>2&#45;&gt;1</title>
<path fill="none" stroke="black" d="M102.9,-13.26C91.3,-7.7 76.88,-3.34 63.67,-6.58 59.69,-7.55 55.67,-9 51.79,-10.69"/>
<polygon fill="black" stroke="black" points="49.97,-7.69 42.54,-15.25 53.06,-13.97 49.97,-7.69"/>
<text text-anchor="middle" x="72.42" y="-10.58" font-family="Times,serif" font-size="14.00">0.0</text>
</g>
<!-- 2&#45;&gt;2 -->
<g id="edge2" class="edge">
<title>2&#45;&gt;2</title>
<path fill="none" stroke="black" d="M116.51,-53.03C115.82,-63.71 119.17,-72.75 126.55,-72.75 131.39,-72.75 134.5,-68.86 135.87,-63.16"/>
<polygon fill="black" stroke="black" points="139.37,-63.26 136.58,-53.03 132.39,-62.76 139.37,-63.26"/>
<text text-anchor="middle" x="126.55" y="-76.95" font-family="Times,serif" font-size="14.00">0.0</text>
</g>
</g>
</svg>
