<?xml version="1.0" encoding="UTF-8" standalone="no"?>
<!-- Generated by graphviz version 2.43.0 (0)
 -->

<!-- Title: %3 Pages: 1 -->

<svg
   xmlns:dc="http://purl.org/dc/elements/1.1/"
   xmlns:cc="http://creativecommons.org/ns#"
   xmlns:rdf="http://www.w3.org/1999/02/22-rdf-syntax-ns#"
   xmlns:svg="http://www.w3.org/2000/svg"
   xmlns="http://www.w3.org/2000/svg"
   xmlns:sodipodi="http://sodipodi.sourceforge.net/DTD/sodipodi-0.dtd"
   xmlns:inkscape="http://www.inkscape.org/namespaces/inkscape"
   width="365pt"
   height="222pt"
   viewBox="0.00 0.00 365.29 221.70"
   version="1.1"
   id="svg116"
   sodipodi:docname="examplefsm.svg"
   inkscape:export-filename="/home/lucas/GithubRepositories/MarkovModels/docs/src/images/examplefsm.png"
   inkscape:export-xdpi="96"
   inkscape:export-ydpi="96"
   inkscape:version="0.92.5 (2060ec1f9f, 2020-04-08)">
  <metadata
     id="metadata122">
    <rdf:RDF>
      <cc:Work
         rdf:about="">
        <dc:format>image/svg+xml</dc:format>
        <dc:type
           rdf:resource="http://purl.org/dc/dcmitype/StillImage" />
      </cc:Work>
    </rdf:RDF>
  </metadata>
  <defs
     id="defs120" />
  <sodipodi:namedview
     pagecolor="#ffffff"
     bordercolor="#666666"
     borderopacity="1"
     objecttolerance="10"
     gridtolerance="10"
     guidetolerance="10"
     inkscape:pageopacity="0"
     inkscape:pageshadow="2"
     inkscape:window-width="972"
     inkscape:window-height="664"
     id="namedview118"
     showgrid="false"
     inkscape:zoom="0.7972973"
     inkscape:cx="243.33333"
     inkscape:cy="148"
     inkscape:window-x="0"
     inkscape:window-y="27"
     inkscape:window-maximized="0"
     inkscape:current-layer="svg116" />
  <g
     id="graph0"
     class="graph"
     transform="scale(1 1) rotate(0) translate(4 217.7)">
    <title
       id="title2">%3</title>
    <polygon
       fill="white"
       stroke="transparent"
       points="-4,4 -4,-217.7 361.29,-217.7 361.29,4 -4,4"
       id="polygon4" />
    <!-- finalstateid -->
    <g
       id="node1"
       class="node">
      <title
         id="title6">finalstateid</title>
      <ellipse
         fill="transparent"
         stroke="black"
         cx="248.69"
         cy="-22.85"
         rx="18.72"
         ry="18.72"
         id="ellipse8" />
      <ellipse
         fill="none"
         stroke="black"
         cx="248.69"
         cy="-22.85"
         rx="22.7"
         ry="22.7"
         id="ellipse10" />
      <text
         text-anchor="middle"
         x="248.69"
         y="-19.15"
         font-family="Times,serif"
         font-size="14.00"
         id="text12">e </text>
    </g>
    <!-- 2 -->
    <g
       id="node2"
       class="node">
      <title
         id="title15">2</title>
      <ellipse
         fill="transparent"
         stroke="black"
         cx="248.69"
         cy="-194.85"
         rx="18.7"
         ry="18.7"
         id="ellipse17" />
      <text
         text-anchor="middle"
         x="248.69"
         y="-191.15"
         font-family="Times,serif"
         font-size="14.00"
         id="text19">a </text>
    </g>
    <!-- 3 -->
    <g
       id="node3"
       class="node">
      <title
         id="title22">3</title>
      <ellipse
         fill="transparent"
         stroke="black"
         cx="355.49"
         cy="-148.85"
         rx="1.8"
         ry="1.8"
         id="ellipse24" />
    </g>
    <!-- 2&#45;&gt;3 -->
    <g
       id="edge2"
       class="edge">
      <title
         id="title27">2-&gt;3</title>
      <path
         fill="none"
         stroke="black"
         d="M267.81,-196.48C286.44,-197.22 315.52,-195.69 335.69,-181.85 343.36,-176.59 348.28,-167.12 351.16,-159.67"
         id="path29" />
      <polygon
         fill="black"
         stroke="black"
         points="354.49,-160.73 354.19,-150.14 347.82,-158.6 354.49,-160.73"
         id="polygon31" />
      <text
         text-anchor="middle"
         x="312.69"
         y="-200.65"
         font-family="Times,serif"
         font-size="14.00"
         id="text33">-0.693</text>
    </g>
    <!-- 1 -->
    <g
       id="node5"
       class="node">
      <title
         id="title36">1</title>
      <ellipse
         fill="lightblue"
         stroke="black"
         cx="124.19"
         cy="-132.85"
         rx="19.5"
         ry="19.5"
         id="ellipse38" />
      <text
         text-anchor="middle"
         x="124.19"
         y="-129.15"
         font-family="Times,serif"
         font-size="14.00"
         id="text40">1 </text>
    </g>
    <!-- 2&#45;&gt;1 -->
    <g
       id="edge1"
       class="edge">
      <title
         id="title43">2-&gt;1</title>
      <path
         fill="none"
         stroke="black"
         d="M233.38,-183.67C225.96,-178.19 216.62,-171.73 207.69,-166.85 189.91,-157.12 168.76,-148.45 152.32,-142.3"
         id="path45" />
      <polygon
         fill="black"
         stroke="black"
         points="153.36,-138.96 142.77,-138.81 150.96,-145.53 153.36,-138.96"
         id="polygon47" />
      <text
         text-anchor="middle"
         x="184.69"
         y="-170.65"
         font-family="Times,serif"
         font-size="14.00"
         id="text49">-0.693</text>
    </g>
    <!-- 3&#45;&gt;2 -->
    <g
       id="edge4"
       class="edge">
      <title
         id="title52">3-&gt;2</title>
      <path
         fill="none"
         stroke="black"
         d="M353.53,-148.89C347.43,-149.2 313.81,-151.38 289.69,-162.85 283,-166.03 276.43,-170.53 270.61,-175.15"
         id="path54" />
      <polygon
         fill="black"
         stroke="black"
         points="268.05,-172.74 262.69,-181.87 272.58,-178.07 268.05,-172.74"
         id="polygon56" />
      <text
         text-anchor="middle"
         x="312.69"
         y="-166.65"
         font-family="Times,serif"
         font-size="14.00"
         id="text58">-0.693</text>
    </g>
    <!-- 3&#45;&gt;1 -->
    <g
       id="edge3"
       class="edge">
      <title
         id="title61">3-&gt;1</title>
      <path
         fill="none"
         stroke="black"
         d="M354.02,-147.49C352.31,-142.81 346.03,-127.18 335.69,-118.85 312.15,-99.89 301.47,-101.04 271.69,-95.85 222.49,-87.28 208.51,-101.46 161.69,-118.85 158.58,-120.01 155.31,-121.23 152.08,-122.46"
         id="path63" />
      <polygon
         fill="black"
         stroke="black"
         points="150.71,-119.24 142.62,-126.08 153.21,-125.78 150.71,-119.24"
         id="polygon65" />
      <text
         text-anchor="middle"
         x="248.69"
         y="-99.65"
         font-family="Times,serif"
         font-size="14.00"
         id="text67">-0.693</text>
    </g>
    <!-- initstateid -->
    <g
       id="node4"
       class="node">
      <title
         id="title70">initstateid</title>
      <ellipse
         fill="transparent"
         stroke="black"
         cx="22.85"
         cy="-132.85"
         rx="18.72"
         ry="18.72"
         id="ellipse72" />
      <ellipse
         fill="none"
         stroke="black"
         cx="22.85"
         cy="-132.85"
         rx="22.7"
         ry="22.7"
         id="ellipse74" />
      <text
         text-anchor="middle"
         x="22.85"
         y="-129.15"
         font-family="Times,serif"
         font-size="14.00"
         id="text76">s </text>
    </g>
    <!-- initstateid&#45;&gt;1 -->
    <g
       id="edge5"
       class="edge">
      <title
         id="title79">initstateid-&gt;1</title>
      <path
         fill="none"
         stroke="black"
         d="M45.9,-132.85C60.2,-132.85 78.99,-132.85 94.46,-132.85"
         id="path81" />
      <polygon
         fill="black"
         stroke="black"
         points="94.55,-136.35 104.55,-132.85 94.55,-129.35 94.55,-136.35"
         id="polygon83" />
      <text
         text-anchor="middle"
         x="75.2"
         y="-136.65"
         font-family="Times,serif"
         font-size="14.00"
         id="text85">0.0</text>
    </g>
    <!-- 1&#45;&gt;finalstateid -->
    <g
       id="edge8"
       class="edge">
      <title
         id="title88">1-&gt;finalstateid</title>
      <path
         fill="none"
         stroke="black"
         d="M129.31,-113.8C134.14,-95.76 143.87,-69.1 161.69,-52.85 176.64,-39.22 198.12,-31.72 215.87,-27.63"
         id="path90" />
      <polygon
         fill="black"
         stroke="black"
         points="216.72,-31.03 225.81,-25.59 215.31,-24.17 216.72,-31.03"
         id="polygon92" />
      <text
         text-anchor="middle"
         x="184.69"
         y="-56.65"
         font-family="Times,serif"
         font-size="14.00"
         id="text94">-1.099</text>
    </g>
    <!-- 1&#45;&gt;2 -->
    <g
       id="edge6"
       class="edge">
      <title
         id="title97">1-&gt;2</title>
      <path
         fill="none"
         stroke="black"
         d="M133.58,-150.16C139.79,-161.06 149.32,-174.43 161.69,-181.85 178.96,-192.2 201.57,-195.3 219.27,-195.89"
         id="path99" />
      <polygon
         fill="black"
         stroke="black"
         points="219.54,-199.39 229.57,-195.97 219.6,-192.39 219.54,-199.39"
         id="polygon101" />
      <text
         text-anchor="middle"
         x="184.69"
         y="-199.65"
         font-family="Times,serif"
         font-size="14.00"
         id="text103">-1.099</text>
    </g>
    <!-- 1&#45;&gt;3 -->
    <g
       id="edge7"
       class="edge">
      <title
         id="title106">1-&gt;3</title>
      <path
         fill="none"
         stroke="black"
         d="M143.8,-133.84C180.52,-135.85 264.9,-140.73 335.69,-146.85 338.14,-147.06 340.76,-147.32 343.24,-147.58"
         id="path108" />
      <polygon
         fill="black"
         stroke="black"
         points="343.15,-151.09 353.48,-148.73 343.93,-144.13 343.15,-151.09"
         id="polygon110" />
      <text
         text-anchor="middle"
         x="248.69"
         y="-145.65"
         font-family="Times,serif"
         font-size="14.00"
         id="text112">-1.099</text>
    </g>
  </g>
</svg>
