<?xml version="1.0" encoding="UTF-8" standalone="no"?>
<!DOCTYPE svg PUBLIC "-//W3C//DTD SVG 1.1//EN"
 "http://www.w3.org/Graphics/SVG/1.1/DTD/svg11.dtd">
<!-- Generated by graphviz version 2.46.0 (20210118.1747)
 -->
<!-- Pages: 1 -->
<svg width="387pt" height="96pt"
 viewBox="0.00 0.00 387.50 95.96" xmlns="http://www.w3.org/2000/svg" xmlns:xlink="http://www.w3.org/1999/xlink">
<g id="graph0" class="graph" transform="scale(1 1) rotate(0) translate(4 91.96)">
<polygon fill="white" stroke="transparent" points="-4,4 -4,-91.96 383.5,-91.96 383.5,4 -4,4"/>
<!-- 1 -->
<g id="node1" class="node">
<title>1</title>
<ellipse fill="lightblue" stroke="black" stroke-width="2" cx="24.18" cy="-28.98" rx="24.36" ry="24.36"/>
<text text-anchor="middle" x="24.18" y="-24.78" font-family="Times,serif" font-size="14.00">系:1</text>
</g>
<!-- 1&#45;&gt;1 -->
<g id="edge1" class="edge">
<title>1&#45;&gt;1</title>
<path fill="none" stroke="black" d="M13.26,-50.68C11.75,-61.5 15.39,-71.16 24.18,-71.16 29.95,-71.16 33.5,-67 34.83,-61.08"/>
<polygon fill="black" stroke="black" points="38.34,-60.77 35.1,-50.68 31.34,-60.59 38.34,-60.77"/>
<text text-anchor="middle" x="24.18" y="-75.36" font-family="Times,serif" font-size="14.00">&#45;0.693</text>
</g>
<!-- 2 -->
<g id="node2" class="node">
<title>2</title>
<ellipse fill="lightblue" stroke="black" cx="143.35" cy="-28.98" rx="22.67" ry="22.67"/>
<text text-anchor="middle" x="143.35" y="-24.78" font-family="Times,serif" font-size="14.00">a:2</text>
</g>
<!-- 1&#45;&gt;2 -->
<g id="edge2" class="edge">
<title>1&#45;&gt;2</title>
<path fill="none" stroke="black" d="M48.61,-28.98C66.19,-28.98 90.47,-28.98 109.92,-28.98"/>
<polygon fill="black" stroke="black" points="110.15,-32.48 120.15,-28.98 110.15,-25.48 110.15,-32.48"/>
<text text-anchor="middle" x="84.44" y="-33.18" font-family="Times,serif" font-size="14.00">&#45;0.693</text>
</g>
<!-- 3 -->
<g id="node3" class="node">
<title>3</title>
<ellipse fill="transparent" stroke="black" cx="243.86" cy="-28.98" rx="24.36" ry="24.36"/>
<text text-anchor="middle" x="243.86" y="-24.78" font-family="Times,serif" font-size="14.00">b:系</text>
</g>
<!-- 2&#45;&gt;3 -->
<g id="edge3" class="edge">
<title>2&#45;&gt;3</title>
<path fill="none" stroke="black" d="M166.21,-28.98C178.77,-28.98 194.81,-28.98 208.97,-28.98"/>
<polygon fill="black" stroke="black" points="209.34,-32.48 219.34,-28.98 209.34,-25.48 209.34,-32.48"/>
<text text-anchor="middle" x="192.94" y="-33.18" font-family="Times,serif" font-size="14.00">0.0</text>
</g>
<!-- 4 -->
<g id="node4" class="node">
<title>4</title>
<ellipse fill="transparent" stroke="black" cx="350.52" cy="-28.98" rx="24.96" ry="24.96"/>
<ellipse fill="none" stroke="black" cx="350.52" cy="-28.98" rx="28.96" ry="28.96"/>
<text text-anchor="middle" x="350.52" y="-24.78" font-family="Times,serif" font-size="14.00">系:系</text>
</g>
<!-- 3&#45;&gt;4 -->
<g id="edge4" class="edge">
<title>3&#45;&gt;4</title>
<path fill="none" stroke="black" d="M268.09,-28.98C280.79,-28.98 296.83,-28.98 311.32,-28.98"/>
<polygon fill="black" stroke="black" points="311.52,-32.48 321.52,-28.98 311.52,-25.48 311.52,-32.48"/>
<text text-anchor="middle" x="294.79" y="-33.18" font-family="Times,serif" font-size="14.00">0.0</text>
</g>
</g>
</svg>
