<?xml version="1.0" encoding="UTF-8" standalone="no"?>
<!DOCTYPE svg PUBLIC "-//W3C//DTD SVG 1.1//EN"
 "http://www.w3.org/Graphics/SVG/1.1/DTD/svg11.dtd">
<!-- Generated by graphviz version 2.43.0 (0)
 -->
<!-- Title: %3 Pages: 1 -->
<svg width="537pt" height="83pt"
 viewBox="0.00 0.00 536.68 83.35" xmlns="http://www.w3.org/2000/svg" xmlns:xlink="http://www.w3.org/1999/xlink">
<g id="graph0" class="graph" transform="scale(1 1) rotate(0) translate(4 79.35)">
<title>%3</title>
<polygon fill="white" stroke="transparent" points="-4,4 -4,-79.35 532.68,-79.35 532.68,4 -4,4"/>
<!-- finalstateid -->
<g id="node1" class="node">
<title>finalstateid</title>
<ellipse fill="transparent" stroke="black" cx="505.83" cy="-22.85" rx="18.72" ry="18.72"/>
<ellipse fill="none" stroke="black" cx="505.83" cy="-22.85" rx="22.7" ry="22.7"/>
<text text-anchor="middle" x="505.83" y="-19.15" font-family="Times,serif" font-size="14.00">e </text>
</g>
<!-- 4 -->
<g id="node2" class="node">
<title>4</title>
<ellipse fill="transparent" stroke="black" cx="422.19" cy="-22.85" rx="1.8" ry="1.8"/>
</g>
<!-- 4&#45;&gt;finalstateid -->
<g id="edge1" class="edge">
<title>4&#45;&gt;finalstateid</title>
<path fill="none" stroke="black" d="M424.1,-22.85C428.97,-22.85 452.29,-22.85 472.63,-22.85"/>
<polygon fill="black" stroke="black" points="472.87,-26.35 482.87,-22.85 472.87,-19.35 472.87,-26.35"/>
<text text-anchor="middle" x="453.49" y="-26.65" font-family="Times,serif" font-size="14.00">0.0</text>
</g>
<!-- initstateid -->
<g id="node3" class="node">
<title>initstateid</title>
<ellipse fill="transparent" stroke="black" cx="22.85" cy="-22.85" rx="18.72" ry="18.72"/>
<ellipse fill="none" stroke="black" cx="22.85" cy="-22.85" rx="22.7" ry="22.7"/>
<text text-anchor="middle" x="22.85" y="-19.15" font-family="Times,serif" font-size="14.00">s </text>
</g>
<!-- 1 -->
<g id="node6" class="node">
<title>1</title>
<ellipse fill="lightblue" stroke="black" cx="124.19" cy="-22.85" rx="19.5" ry="19.5"/>
<text text-anchor="middle" x="124.19" y="-19.15" font-family="Times,serif" font-size="14.00">1 </text>
</g>
<!-- initstateid&#45;&gt;1 -->
<g id="edge2" class="edge">
<title>initstateid&#45;&gt;1</title>
<path fill="none" stroke="black" d="M45.9,-22.85C60.2,-22.85 78.99,-22.85 94.46,-22.85"/>
<polygon fill="black" stroke="black" points="94.55,-26.35 104.55,-22.85 94.55,-19.35 94.55,-26.35"/>
<text text-anchor="middle" x="75.2" y="-26.65" font-family="Times,serif" font-size="14.00">0.0</text>
</g>
<!-- 2 -->
<g id="node4" class="node">
<title>2</title>
<ellipse fill="lightblue" stroke="black" cx="244.54" cy="-22.85" rx="18.7" ry="18.7"/>
<text text-anchor="middle" x="244.54" y="-19.15" font-family="Times,serif" font-size="14.00">a </text>
</g>
<!-- 3 -->
<g id="node5" class="node">
<title>3</title>
<ellipse fill="transparent" stroke="black" cx="341.89" cy="-22.85" rx="19.5" ry="19.5"/>
<text text-anchor="middle" x="341.89" y="-19.15" font-family="Times,serif" font-size="14.00">b </text>
</g>
<!-- 2&#45;&gt;3 -->
<g id="edge3" class="edge">
<title>2&#45;&gt;3</title>
<path fill="none" stroke="black" d="M263.48,-22.85C277.15,-22.85 296.26,-22.85 312.07,-22.85"/>
<polygon fill="black" stroke="black" points="312.38,-26.35 322.38,-22.85 312.38,-19.35 312.38,-26.35"/>
<text text-anchor="middle" x="292.89" y="-26.65" font-family="Times,serif" font-size="14.00">0.0</text>
</g>
<!-- 3&#45;&gt;4 -->
<g id="edge4" class="edge">
<title>3&#45;&gt;4</title>
<path fill="none" stroke="black" d="M361.44,-22.85C376.53,-22.85 397.31,-22.85 409.96,-22.85"/>
<polygon fill="black" stroke="black" points="410.26,-26.35 420.26,-22.85 410.26,-19.35 410.26,-26.35"/>
<text text-anchor="middle" x="390.89" y="-26.65" font-family="Times,serif" font-size="14.00">0.0</text>
</g>
<!-- 1&#45;&gt;2 -->
<g id="edge6" class="edge">
<title>1&#45;&gt;2</title>
<path fill="none" stroke="black" d="M143.95,-22.85C163.22,-22.85 193.44,-22.85 215.54,-22.85"/>
<polygon fill="black" stroke="black" points="215.65,-26.35 225.65,-22.85 215.65,-19.35 215.65,-26.35"/>
<text text-anchor="middle" x="184.69" y="-26.65" font-family="Times,serif" font-size="14.00">&#45;0.693</text>
</g>
<!-- 1&#45;&gt;1 -->
<g id="edge5" class="edge">
<title>1&#45;&gt;1</title>
<path fill="none" stroke="black" d="M115.69,-40.59C113.95,-50.82 116.79,-60.35 124.19,-60.35 128.94,-60.35 131.81,-56.44 132.8,-50.94"/>
<polygon fill="black" stroke="black" points="136.3,-50.56 132.7,-40.59 129.3,-50.63 136.3,-50.56"/>
<text text-anchor="middle" x="124.19" y="-64.15" font-family="Times,serif" font-size="14.00">&#45;0.693</text>
</g>
</g>
</svg>
