<?xml version="1.0" encoding="UTF-8" standalone="no"?>
<!DOCTYPE svg PUBLIC "-//W3C//DTD SVG 1.1//EN"
 "http://www.w3.org/Graphics/SVG/1.1/DTD/svg11.dtd">
<!-- Generated by graphviz version 2.43.0 (0)
 -->
<!-- Title: %3 Pages: 1 -->
<svg width="420pt" height="164pt"
 viewBox="0.00 0.00 420.00 164.00" xmlns="http://www.w3.org/2000/svg" xmlns:xlink="http://www.w3.org/1999/xlink">
<g id="graph0" class="graph" transform="scale(1 1) rotate(0) translate(4 160)">
<title>%3</title>
<polygon fill="white" stroke="transparent" points="-4,4 -4,-160 416,-160 416,4 -4,4"/>
<!-- 4 -->
<g id="node1" class="node">
<title>4</title>
<ellipse fill="transparent" stroke="black" cx="143" cy="-105" rx="18" ry="18"/>
<text text-anchor="middle" x="143" y="-101.3" font-family="Times,serif" font-size="14.00">c</text>
</g>
<!-- 4&#45;&gt;4 -->
<g id="edge2" class="edge">
<title>4&#45;&gt;4</title>
<path fill="none" stroke="black" d="M133.19,-120.17C130.21,-130.66 133.48,-141 143,-141 149.24,-141 152.8,-136.55 153.67,-130.52"/>
<polygon fill="black" stroke="black" points="157.12,-129.85 152.81,-120.17 150.15,-130.42 157.12,-129.85"/>
<text text-anchor="middle" x="143" y="-144.8" font-family="Times,serif" font-size="14.00">&#45;0.693</text>
</g>
<!-- 3 -->
<g id="node3" class="node">
<title>3</title>
<ellipse fill="transparent" stroke="black" cx="261" cy="-105" rx="18" ry="18"/>
<text text-anchor="middle" x="261" y="-101.3" font-family="Times,serif" font-size="14.00">d</text>
</g>
<!-- 4&#45;&gt;3 -->
<g id="edge1" class="edge">
<title>4&#45;&gt;3</title>
<path fill="none" stroke="black" d="M161.12,-105C179.96,-105 210.53,-105 232.7,-105"/>
<polygon fill="black" stroke="black" points="232.81,-108.5 242.81,-105 232.81,-101.5 232.81,-108.5"/>
<text text-anchor="middle" x="202" y="-108.8" font-family="Times,serif" font-size="14.00">&#45;0.693</text>
</g>
<!-- 2 -->
<g id="node2" class="node">
<title>2</title>
<ellipse fill="transparent" stroke="black" cx="143" cy="-18" rx="18" ry="18"/>
<text text-anchor="middle" x="143" y="-14.3" font-family="Times,serif" font-size="14.00">a</text>
</g>
<!-- 2&#45;&gt;2 -->
<g id="edge3" class="edge">
<title>2&#45;&gt;2</title>
<path fill="none" stroke="black" d="M133.19,-33.17C130.21,-43.66 133.48,-54 143,-54 149.24,-54 152.8,-49.55 153.67,-43.52"/>
<polygon fill="black" stroke="black" points="157.12,-42.85 152.81,-33.17 150.15,-43.42 157.12,-42.85"/>
<text text-anchor="middle" x="143" y="-57.8" font-family="Times,serif" font-size="14.00">&#45;0.693</text>
</g>
<!-- 1 -->
<g id="node6" class="node">
<title>1</title>
<ellipse fill="transparent" stroke="black" cx="261" cy="-18" rx="18" ry="18"/>
<text text-anchor="middle" x="261" y="-14.3" font-family="Times,serif" font-size="14.00">b</text>
</g>
<!-- 2&#45;&gt;1 -->
<g id="edge4" class="edge">
<title>2&#45;&gt;1</title>
<path fill="none" stroke="black" d="M161.12,-18C179.96,-18 210.53,-18 232.7,-18"/>
<polygon fill="black" stroke="black" points="232.81,-21.5 242.81,-18 232.81,-14.5 232.81,-21.5"/>
<text text-anchor="middle" x="202" y="-21.8" font-family="Times,serif" font-size="14.00">&#45;0.693</text>
</g>
<!-- 3&#45;&gt;3 -->
<g id="edge5" class="edge">
<title>3&#45;&gt;3</title>
<path fill="none" stroke="black" d="M251.19,-120.17C248.21,-130.66 251.48,-141 261,-141 267.24,-141 270.8,-136.55 271.67,-130.52"/>
<polygon fill="black" stroke="black" points="275.12,-129.85 270.81,-120.17 268.15,-130.42 275.12,-129.85"/>
<text text-anchor="middle" x="261" y="-144.8" font-family="Times,serif" font-size="14.00">&#45;0.693</text>
</g>
<!-- e -->
<g id="node4" class="node">
<title>e</title>
<ellipse fill="none" stroke="black" cx="386.5" cy="-61" rx="21.5" ry="21.5"/>
<ellipse fill="none" stroke="black" cx="386.5" cy="-61" rx="25.5" ry="25.5"/>
<text text-anchor="middle" x="386.5" y="-57.3" font-family="Times,serif" font-size="14.00">&lt;/s&gt;</text>
</g>
<!-- 3&#45;&gt;e -->
<g id="edge6" class="edge">
<title>3&#45;&gt;e</title>
<path fill="none" stroke="black" d="M278.15,-99.25C296.99,-92.53 328.65,-81.25 352.72,-72.68"/>
<polygon fill="black" stroke="black" points="353.93,-75.96 362.18,-69.31 351.59,-69.37 353.93,-75.96"/>
<text text-anchor="middle" x="320" y="-94.8" font-family="Times,serif" font-size="14.00">&#45;0.693</text>
</g>
<!-- s -->
<g id="node5" class="node">
<title>s</title>
<ellipse fill="none" stroke="black" stroke-width="2" cx="21.5" cy="-61" rx="21.5" ry="21.5"/>
<text text-anchor="middle" x="21.5" y="-57.3" font-family="Times,serif" font-size="14.00">&lt;s&gt;</text>
</g>
<!-- s&#45;&gt;4 -->
<g id="edge8" class="edge">
<title>s&#45;&gt;4</title>
<path fill="none" stroke="black" d="M41.97,-68.17C62.27,-75.64 94.19,-87.4 116.49,-95.61"/>
<polygon fill="black" stroke="black" points="115.4,-98.93 125.99,-99.1 117.81,-92.37 115.4,-98.93"/>
<text text-anchor="middle" x="84" y="-94.8" font-family="Times,serif" font-size="14.00">&#45;0.693</text>
</g>
<!-- s&#45;&gt;2 -->
<g id="edge7" class="edge">
<title>s&#45;&gt;2</title>
<path fill="none" stroke="black" d="M41.97,-54C62.15,-46.73 93.83,-35.33 116.11,-27.31"/>
<polygon fill="black" stroke="black" points="117.39,-30.57 125.62,-23.89 115.02,-23.99 117.39,-30.57"/>
<text text-anchor="middle" x="84" y="-51.8" font-family="Times,serif" font-size="14.00">&#45;0.693</text>
</g>
<!-- 1&#45;&gt;e -->
<g id="edge9" class="edge">
<title>1&#45;&gt;e</title>
<path fill="none" stroke="black" d="M278.15,-23.62C296.99,-30.18 328.65,-41.21 352.72,-49.59"/>
<polygon fill="black" stroke="black" points="351.59,-52.9 362.18,-52.88 353.89,-46.29 351.59,-52.9"/>
<text text-anchor="middle" x="320" y="-49.8" font-family="Times,serif" font-size="14.00">&#45;0.693</text>
</g>
<!-- 1&#45;&gt;1 -->
<g id="edge10" class="edge">
<title>1&#45;&gt;1</title>
<path fill="none" stroke="black" d="M251.19,-33.17C248.21,-43.66 251.48,-54 261,-54 267.24,-54 270.8,-49.55 271.67,-43.52"/>
<polygon fill="black" stroke="black" points="275.12,-42.85 270.81,-33.17 268.15,-43.42 275.12,-42.85"/>
<text text-anchor="middle" x="261" y="-57.8" font-family="Times,serif" font-size="14.00">&#45;0.693</text>
</g>
</g>
</svg>
