<?xml version="1.0" encoding="UTF-8" standalone="no"?>
<!DOCTYPE svg PUBLIC "-//W3C//DTD SVG 1.1//EN"
 "http://www.w3.org/Graphics/SVG/1.1/DTD/svg11.dtd">
<!-- Generated by graphviz version 2.43.0 (0)
 -->
<!-- Title: %3 Pages: 1 -->
<svg width="446pt" height="98pt"
 viewBox="0.00 0.00 446.00 98.00" xmlns="http://www.w3.org/2000/svg" xmlns:xlink="http://www.w3.org/1999/xlink">
<g id="graph0" class="graph" transform="scale(1 1) rotate(0) translate(4 94)">
<title>%3</title>
<polygon fill="white" stroke="transparent" points="-4,4 -4,-94 442,-94 442,4 -4,4"/>
<!-- 4 -->
<g id="node1" class="node">
<title>4</title>
<ellipse fill="transparent" stroke="black" cx="215" cy="-18" rx="18" ry="18"/>
<text text-anchor="middle" x="215" y="-14.3" font-family="Times,serif" font-size="14.00">d</text>
</g>
<!-- 5 -->
<g id="node6" class="node">
<title>5</title>
<ellipse fill="transparent" stroke="black" cx="310" cy="-18" rx="18" ry="18"/>
<text text-anchor="middle" x="310" y="-14.3" font-family="Times,serif" font-size="14.00">c</text>
</g>
<!-- 4&#45;&gt;5 -->
<g id="edge5" class="edge">
<title>4&#45;&gt;5</title>
<path fill="none" stroke="black" d="M233.06,-18C246.61,-18 265.82,-18 281.53,-18"/>
<polygon fill="black" stroke="black" points="281.74,-21.5 291.74,-18 281.74,-14.5 281.74,-21.5"/>
<text text-anchor="middle" x="262.5" y="-21.8" font-family="Times,serif" font-size="14.00">0.0</text>
</g>
<!-- 2 -->
<g id="node2" class="node">
<title>2</title>
<ellipse fill="transparent" stroke="black" cx="310" cy="-72" rx="18" ry="18"/>
<text text-anchor="middle" x="310" y="-68.3" font-family="Times,serif" font-size="14.00">c</text>
</g>
<!-- e -->
<g id="node5" class="node">
<title>e</title>
<ellipse fill="none" stroke="black" cx="412.5" cy="-45" rx="21.5" ry="21.5"/>
<ellipse fill="none" stroke="black" cx="412.5" cy="-45" rx="25.5" ry="25.5"/>
<text text-anchor="middle" x="412.5" y="-41.3" font-family="Times,serif" font-size="14.00">&lt;/s&gt;</text>
</g>
<!-- 2&#45;&gt;e -->
<g id="edge8" class="edge">
<title>2&#45;&gt;e</title>
<path fill="none" stroke="black" d="M327.6,-67.54C341.17,-63.89 360.81,-58.62 377.67,-54.09"/>
<polygon fill="black" stroke="black" points="378.99,-57.36 387.73,-51.38 377.17,-50.6 378.99,-57.36"/>
<text text-anchor="middle" x="357.5" y="-65.8" font-family="Times,serif" font-size="14.00">0.0</text>
</g>
<!-- 3 -->
<g id="node3" class="node">
<title>3</title>
<ellipse fill="lightblue" stroke="black" cx="120" cy="-72" rx="18" ry="18"/>
<text text-anchor="middle" x="120" y="-68.3" font-family="Times,serif" font-size="14.00">a</text>
</g>
<!-- 1 -->
<g id="node8" class="node">
<title>1</title>
<ellipse fill="transparent" stroke="black" cx="215" cy="-72" rx="18" ry="18"/>
<text text-anchor="middle" x="215" y="-68.3" font-family="Times,serif" font-size="14.00">b</text>
</g>
<!-- 3&#45;&gt;1 -->
<g id="edge3" class="edge">
<title>3&#45;&gt;1</title>
<path fill="none" stroke="black" d="M138.06,-72C151.61,-72 170.82,-72 186.53,-72"/>
<polygon fill="black" stroke="black" points="186.74,-75.5 196.74,-72 186.74,-68.5 186.74,-75.5"/>
<text text-anchor="middle" x="167.5" y="-75.8" font-family="Times,serif" font-size="14.00">0.0</text>
</g>
<!-- s -->
<g id="node4" class="node">
<title>s</title>
<ellipse fill="none" stroke="black" stroke-width="2" cx="21.5" cy="-45" rx="21.5" ry="21.5"/>
<text text-anchor="middle" x="21.5" y="-41.3" font-family="Times,serif" font-size="14.00">&lt;s&gt;</text>
</g>
<!-- s&#45;&gt;3 -->
<g id="edge1" class="edge">
<title>s&#45;&gt;3</title>
<path fill="none" stroke="black" d="M42.49,-50.59C57.08,-54.67 76.98,-60.24 92.82,-64.68"/>
<polygon fill="black" stroke="black" points="91.98,-68.08 102.56,-67.4 93.87,-61.33 91.98,-68.08"/>
<text text-anchor="middle" x="72.5" y="-64.8" font-family="Times,serif" font-size="14.00">0.0</text>
</g>
<!-- 6 -->
<g id="node7" class="node">
<title>6</title>
<ellipse fill="lightblue" stroke="black" cx="120" cy="-18" rx="18" ry="18"/>
<text text-anchor="middle" x="120" y="-14.3" font-family="Times,serif" font-size="14.00">a</text>
</g>
<!-- s&#45;&gt;6 -->
<g id="edge2" class="edge">
<title>s&#45;&gt;6</title>
<path fill="none" stroke="black" d="M42.49,-39.41C57.08,-35.33 76.98,-29.76 92.82,-25.32"/>
<polygon fill="black" stroke="black" points="93.87,-28.67 102.56,-22.6 91.98,-21.92 93.87,-28.67"/>
<text text-anchor="middle" x="72.5" y="-36.8" font-family="Times,serif" font-size="14.00">0.0</text>
</g>
<!-- 5&#45;&gt;e -->
<g id="edge6" class="edge">
<title>5&#45;&gt;e</title>
<path fill="none" stroke="black" d="M327.86,-21.32C339.49,-23.73 355.27,-27.21 369,-31 372.15,-31.87 375.4,-32.83 378.65,-33.83"/>
<polygon fill="black" stroke="black" points="377.65,-37.18 388.24,-36.88 379.78,-30.51 377.65,-37.18"/>
<text text-anchor="middle" x="357.5" y="-34.8" font-family="Times,serif" font-size="14.00">0.0</text>
</g>
<!-- 6&#45;&gt;4 -->
<g id="edge4" class="edge">
<title>6&#45;&gt;4</title>
<path fill="none" stroke="black" d="M138.06,-18C151.61,-18 170.82,-18 186.53,-18"/>
<polygon fill="black" stroke="black" points="186.74,-21.5 196.74,-18 186.74,-14.5 186.74,-21.5"/>
<text text-anchor="middle" x="167.5" y="-21.8" font-family="Times,serif" font-size="14.00">0.0</text>
</g>
<!-- 1&#45;&gt;2 -->
<g id="edge7" class="edge">
<title>1&#45;&gt;2</title>
<path fill="none" stroke="black" d="M233.06,-72C246.61,-72 265.82,-72 281.53,-72"/>
<polygon fill="black" stroke="black" points="281.74,-75.5 291.74,-72 281.74,-68.5 281.74,-75.5"/>
<text text-anchor="middle" x="262.5" y="-75.8" font-family="Times,serif" font-size="14.00">0.0</text>
</g>
</g>
</svg>
