<?xml version="1.0" encoding="UTF-8" standalone="no"?>
<!DOCTYPE svg PUBLIC "-//W3C//DTD SVG 1.1//EN"
 "http://www.w3.org/Graphics/SVG/1.1/DTD/svg11.dtd">
<!-- Generated by graphviz version 2.43.0 (0)
 -->
<!-- Title: %3 Pages: 1 -->
<svg width="446pt" height="59pt"
 viewBox="0.00 0.00 446.00 59.00" xmlns="http://www.w3.org/2000/svg" xmlns:xlink="http://www.w3.org/1999/xlink">
<g id="graph0" class="graph" transform="scale(1 1) rotate(0) translate(4 55)">
<title>%3</title>
<polygon fill="white" stroke="transparent" points="-4,4 -4,-55 442,-55 442,4 -4,4"/>
<!-- s -->
<g id="node1" class="node">
<title>s</title>
<ellipse fill="none" stroke="black" stroke-width="2" cx="21.5" cy="-25.5" rx="21.5" ry="21.5"/>
<text text-anchor="middle" x="21.5" y="-21.8" font-family="Times,serif" font-size="14.00">&lt;s&gt;</text>
</g>
<!-- 1 -->
<g id="node5" class="node">
<title>1</title>
<ellipse fill="lightblue" stroke="black" cx="120" cy="-25.5" rx="18" ry="18"/>
<text text-anchor="middle" x="120" y="-21.8" font-family="Times,serif" font-size="14.00">a</text>
</g>
<!-- s&#45;&gt;1 -->
<g id="edge1" class="edge">
<title>s&#45;&gt;1</title>
<path fill="none" stroke="black" d="M43.44,-25.5C57.53,-25.5 76.27,-25.5 91.55,-25.5"/>
<polygon fill="black" stroke="black" points="91.96,-29 101.96,-25.5 91.96,-22 91.96,-29"/>
<text text-anchor="middle" x="72.5" y="-29.3" font-family="Times,serif" font-size="14.00">0.0</text>
</g>
<!-- e -->
<g id="node2" class="node">
<title>e</title>
<ellipse fill="none" stroke="black" cx="412.5" cy="-25.5" rx="21.5" ry="21.5"/>
<ellipse fill="none" stroke="black" cx="412.5" cy="-25.5" rx="25.5" ry="25.5"/>
<text text-anchor="middle" x="412.5" y="-21.8" font-family="Times,serif" font-size="14.00">&lt;/s&gt;</text>
</g>
<!-- 2 -->
<g id="node3" class="node">
<title>2</title>
<ellipse fill="lightblue" stroke="black" cx="215" cy="-25.5" rx="18" ry="18"/>
<text text-anchor="middle" x="215" y="-21.8" font-family="Times,serif" font-size="14.00">b</text>
</g>
<!-- 3 -->
<g id="node4" class="node">
<title>3</title>
<ellipse fill="transparent" stroke="black" cx="310" cy="-25.5" rx="18" ry="18"/>
<text text-anchor="middle" x="310" y="-21.8" font-family="Times,serif" font-size="14.00">c</text>
</g>
<!-- 2&#45;&gt;3 -->
<g id="edge2" class="edge">
<title>2&#45;&gt;3</title>
<path fill="none" stroke="black" d="M233.06,-25.5C246.61,-25.5 265.82,-25.5 281.53,-25.5"/>
<polygon fill="black" stroke="black" points="281.74,-29 291.74,-25.5 281.74,-22 281.74,-29"/>
<text text-anchor="middle" x="262.5" y="-29.3" font-family="Times,serif" font-size="14.00">0.0</text>
</g>
<!-- 3&#45;&gt;e -->
<g id="edge3" class="edge">
<title>3&#45;&gt;e</title>
<path fill="none" stroke="black" d="M328.05,-25.5C341.28,-25.5 360.07,-25.5 376.47,-25.5"/>
<polygon fill="black" stroke="black" points="376.82,-29 386.82,-25.5 376.82,-22 376.82,-29"/>
<text text-anchor="middle" x="357.5" y="-29.3" font-family="Times,serif" font-size="14.00">0.0</text>
</g>
<!-- 1&#45;&gt;2 -->
<g id="edge4" class="edge">
<title>1&#45;&gt;2</title>
<path fill="none" stroke="black" d="M138.06,-25.5C151.61,-25.5 170.82,-25.5 186.53,-25.5"/>
<polygon fill="black" stroke="black" points="186.74,-29 196.74,-25.5 186.74,-22 186.74,-29"/>
<text text-anchor="middle" x="167.5" y="-29.3" font-family="Times,serif" font-size="14.00">0.0</text>
</g>
</g>
</svg>
