<?xml version="1.0" encoding="UTF-8" standalone="no"?>
<!DOCTYPE svg PUBLIC "-//W3C//DTD SVG 1.1//EN"
 "http://www.w3.org/Graphics/SVG/1.1/DTD/svg11.dtd">
<!-- Generated by graphviz version 2.43.0 (0)
 -->
<!-- Title: %3 Pages: 1 -->
<svg width="256pt" height="59pt"
 viewBox="0.00 0.00 256.00 59.00" xmlns="http://www.w3.org/2000/svg" xmlns:xlink="http://www.w3.org/1999/xlink">
<g id="graph0" class="graph" transform="scale(1 1) rotate(0) translate(4 55)">
<title>%3</title>
<polygon fill="white" stroke="transparent" points="-4,4 -4,-55 252,-55 252,4 -4,4"/>
<!-- e -->
<g id="node1" class="node">
<title>e</title>
<ellipse fill="none" stroke="black" cx="222.5" cy="-25.5" rx="21.5" ry="21.5"/>
<ellipse fill="none" stroke="black" cx="222.5" cy="-25.5" rx="25.5" ry="25.5"/>
<text text-anchor="middle" x="222.5" y="-21.8" font-family="Times,serif" font-size="14.00">&lt;/s&gt;</text>
</g>
<!-- s -->
<g id="node2" class="node">
<title>s</title>
<ellipse fill="none" stroke="black" stroke-width="2" cx="21.5" cy="-25.5" rx="21.5" ry="21.5"/>
<text text-anchor="middle" x="21.5" y="-21.8" font-family="Times,serif" font-size="14.00">&lt;s&gt;</text>
</g>
<!-- 1 -->
<g id="node3" class="node">
<title>1</title>
<ellipse fill="transparent" stroke="black" cx="120" cy="-25.5" rx="18" ry="18"/>
<text text-anchor="middle" x="120" y="-21.8" font-family="Times,serif" font-size="14.00">e</text>
</g>
<!-- s&#45;&gt;1 -->
<g id="edge1" class="edge">
<title>s&#45;&gt;1</title>
<path fill="none" stroke="black" d="M43.44,-25.5C57.53,-25.5 76.27,-25.5 91.55,-25.5"/>
<polygon fill="black" stroke="black" points="91.96,-29 101.96,-25.5 91.96,-22 91.96,-29"/>
<text text-anchor="middle" x="72.5" y="-29.3" font-family="Times,serif" font-size="14.00">0.0</text>
</g>
<!-- 1&#45;&gt;e -->
<g id="edge2" class="edge">
<title>1&#45;&gt;e</title>
<path fill="none" stroke="black" d="M138.05,-25.5C151.28,-25.5 170.07,-25.5 186.47,-25.5"/>
<polygon fill="black" stroke="black" points="186.82,-29 196.82,-25.5 186.82,-22 186.82,-29"/>
<text text-anchor="middle" x="167.5" y="-29.3" font-family="Times,serif" font-size="14.00">0.0</text>
</g>
</g>
</svg>
