<?xml version="1.0" encoding="UTF-8" standalone="no"?>
<!DOCTYPE svg PUBLIC "-//W3C//DTD SVG 1.1//EN"
 "http://www.w3.org/Graphics/SVG/1.1/DTD/svg11.dtd">
<!-- Generated by graphviz version 2.43.0 (0)
 -->
<!-- Title: %3 Pages: 1 -->
<svg width="351pt" height="164pt"
 viewBox="0.00 0.00 351.00 164.00" xmlns="http://www.w3.org/2000/svg" xmlns:xlink="http://www.w3.org/1999/xlink">
<g id="graph0" class="graph" transform="scale(1 1) rotate(0) translate(4 160)">
<title>%3</title>
<polygon fill="white" stroke="transparent" points="-4,4 -4,-160 347,-160 347,4 -4,4"/>
<!-- 4 -->
<g id="node1" class="node">
<title>4</title>
<ellipse fill="transparent" stroke="black" cx="120" cy="-105" rx="18" ry="18"/>
<text text-anchor="middle" x="120" y="-101.3" font-family="Times,serif" font-size="14.00">c</text>
</g>
<!-- 4&#45;&gt;4 -->
<g id="edge2" class="edge">
<title>4&#45;&gt;4</title>
<path fill="none" stroke="black" d="M111.98,-121.29C110.05,-131.39 112.72,-141 120,-141 124.66,-141 127.43,-137.06 128.32,-131.57"/>
<polygon fill="black" stroke="black" points="131.81,-131.18 128.02,-121.29 124.81,-131.39 131.81,-131.18"/>
<text text-anchor="middle" x="120" y="-144.8" font-family="Times,serif" font-size="14.00">0.0</text>
</g>
<!-- 3 -->
<g id="node3" class="node">
<title>3</title>
<ellipse fill="transparent" stroke="black" cx="215" cy="-105" rx="18" ry="18"/>
<text text-anchor="middle" x="215" y="-101.3" font-family="Times,serif" font-size="14.00">d</text>
</g>
<!-- 4&#45;&gt;3 -->
<g id="edge1" class="edge">
<title>4&#45;&gt;3</title>
<path fill="none" stroke="black" d="M138.06,-105C151.61,-105 170.82,-105 186.53,-105"/>
<polygon fill="black" stroke="black" points="186.74,-108.5 196.74,-105 186.74,-101.5 186.74,-108.5"/>
<text text-anchor="middle" x="167.5" y="-108.8" font-family="Times,serif" font-size="14.00">0.0</text>
</g>
<!-- 2 -->
<g id="node2" class="node">
<title>2</title>
<ellipse fill="transparent" stroke="black" cx="120" cy="-18" rx="18" ry="18"/>
<text text-anchor="middle" x="120" y="-14.3" font-family="Times,serif" font-size="14.00">a</text>
</g>
<!-- 2&#45;&gt;2 -->
<g id="edge4" class="edge">
<title>2&#45;&gt;2</title>
<path fill="none" stroke="black" d="M111.98,-34.29C110.05,-44.39 112.72,-54 120,-54 124.66,-54 127.43,-50.06 128.32,-44.57"/>
<polygon fill="black" stroke="black" points="131.81,-44.18 128.02,-34.29 124.81,-44.39 131.81,-44.18"/>
<text text-anchor="middle" x="120" y="-57.8" font-family="Times,serif" font-size="14.00">0.0</text>
</g>
<!-- 1 -->
<g id="node6" class="node">
<title>1</title>
<ellipse fill="transparent" stroke="black" cx="215" cy="-18" rx="18" ry="18"/>
<text text-anchor="middle" x="215" y="-14.3" font-family="Times,serif" font-size="14.00">b</text>
</g>
<!-- 2&#45;&gt;1 -->
<g id="edge3" class="edge">
<title>2&#45;&gt;1</title>
<path fill="none" stroke="black" d="M138.06,-18C151.61,-18 170.82,-18 186.53,-18"/>
<polygon fill="black" stroke="black" points="186.74,-21.5 196.74,-18 186.74,-14.5 186.74,-21.5"/>
<text text-anchor="middle" x="167.5" y="-21.8" font-family="Times,serif" font-size="14.00">0.0</text>
</g>
<!-- 3&#45;&gt;3 -->
<g id="edge6" class="edge">
<title>3&#45;&gt;3</title>
<path fill="none" stroke="black" d="M206.98,-121.29C205.05,-131.39 207.72,-141 215,-141 219.66,-141 222.43,-137.06 223.32,-131.57"/>
<polygon fill="black" stroke="black" points="226.81,-131.18 223.02,-121.29 219.81,-131.39 226.81,-131.18"/>
<text text-anchor="middle" x="215" y="-144.8" font-family="Times,serif" font-size="14.00">0.0</text>
</g>
<!-- e -->
<g id="node4" class="node">
<title>e</title>
<ellipse fill="none" stroke="black" cx="317.5" cy="-61" rx="21.5" ry="21.5"/>
<ellipse fill="none" stroke="black" cx="317.5" cy="-61" rx="25.5" ry="25.5"/>
<text text-anchor="middle" x="317.5" y="-57.3" font-family="Times,serif" font-size="14.00">&lt;/s&gt;</text>
</g>
<!-- 3&#45;&gt;e -->
<g id="edge5" class="edge">
<title>3&#45;&gt;e</title>
<path fill="none" stroke="black" d="M231.7,-98.12C245.77,-91.97 266.84,-82.74 284.46,-75.03"/>
<polygon fill="black" stroke="black" points="286.06,-78.15 293.82,-70.93 283.26,-71.73 286.06,-78.15"/>
<text text-anchor="middle" x="262.5" y="-92.8" font-family="Times,serif" font-size="14.00">0.0</text>
</g>
<!-- s -->
<g id="node5" class="node">
<title>s</title>
<ellipse fill="none" stroke="black" stroke-width="2" cx="21.5" cy="-61" rx="21.5" ry="21.5"/>
<text text-anchor="middle" x="21.5" y="-57.3" font-family="Times,serif" font-size="14.00">&lt;s&gt;</text>
</g>
<!-- s&#45;&gt;4 -->
<g id="edge8" class="edge">
<title>s&#45;&gt;4</title>
<path fill="none" stroke="black" d="M41.57,-69.69C56.49,-76.5 77.37,-86.02 93.69,-93.46"/>
<polygon fill="black" stroke="black" points="92.62,-96.82 103.17,-97.78 95.52,-90.45 92.62,-96.82"/>
<text text-anchor="middle" x="72.5" y="-91.8" font-family="Times,serif" font-size="14.00">0.0</text>
</g>
<!-- s&#45;&gt;2 -->
<g id="edge7" class="edge">
<title>s&#45;&gt;2</title>
<path fill="none" stroke="black" d="M41.57,-52.5C56.49,-45.86 77.37,-36.55 93.69,-29.28"/>
<polygon fill="black" stroke="black" points="95.46,-32.32 103.17,-25.06 92.61,-25.93 95.46,-32.32"/>
<text text-anchor="middle" x="72.5" y="-47.8" font-family="Times,serif" font-size="14.00">0.0</text>
</g>
<!-- 1&#45;&gt;e -->
<g id="edge9" class="edge">
<title>1&#45;&gt;e</title>
<path fill="none" stroke="black" d="M231.7,-24.72C245.77,-30.74 266.84,-39.75 284.46,-47.29"/>
<polygon fill="black" stroke="black" points="283.25,-50.58 293.82,-51.3 286,-44.14 283.25,-50.58"/>
<text text-anchor="middle" x="262.5" y="-46.8" font-family="Times,serif" font-size="14.00">0.0</text>
</g>
<!-- 1&#45;&gt;1 -->
<g id="edge10" class="edge">
<title>1&#45;&gt;1</title>
<path fill="none" stroke="black" d="M206.98,-34.29C205.05,-44.39 207.72,-54 215,-54 219.66,-54 222.43,-50.06 223.32,-44.57"/>
<polygon fill="black" stroke="black" points="226.81,-44.18 223.02,-34.29 219.81,-44.39 226.81,-44.18"/>
<text text-anchor="middle" x="215" y="-57.8" font-family="Times,serif" font-size="14.00">0.0</text>
</g>
</g>
</svg>
