<?xml version="1.0" encoding="UTF-8" standalone="no"?>
<!DOCTYPE svg PUBLIC "-//W3C//DTD SVG 1.1//EN"
 "http://www.w3.org/Graphics/SVG/1.1/DTD/svg11.dtd">
<!-- Generated by graphviz version 2.43.0 (0)
 -->
<!-- Title: %3 Pages: 1 -->
<svg width="515pt" height="85pt"
 viewBox="0.00 0.00 515.00 84.50" xmlns="http://www.w3.org/2000/svg" xmlns:xlink="http://www.w3.org/1999/xlink">
<g id="graph0" class="graph" transform="scale(1 1) rotate(0) translate(4 80.5)">
<title>%3</title>
<polygon fill="white" stroke="transparent" points="-4,4 -4,-80.5 511,-80.5 511,4 -4,4"/>
<!-- e -->
<g id="node1" class="node">
<title>e</title>
<ellipse fill="none" stroke="black" cx="481.5" cy="-25.5" rx="21.5" ry="21.5"/>
<ellipse fill="none" stroke="black" cx="481.5" cy="-25.5" rx="25.5" ry="25.5"/>
<text text-anchor="middle" x="481.5" y="-21.8" font-family="Times,serif" font-size="14.00">&lt;/s&gt;</text>
</g>
<!-- 2 -->
<g id="node2" class="node">
<title>2</title>
<ellipse fill="lightblue" stroke="black" cx="356" cy="-25.5" rx="18" ry="18"/>
<text text-anchor="middle" x="356" y="-21.8" font-family="Times,serif" font-size="14.00">c</text>
</g>
<!-- 2&#45;&gt;e -->
<g id="edge1" class="edge">
<title>2&#45;&gt;e</title>
<path fill="none" stroke="black" d="M374.17,-25.5C392.56,-25.5 422.25,-25.5 445.59,-25.5"/>
<polygon fill="black" stroke="black" points="445.8,-29 455.8,-25.5 445.8,-22 445.8,-29"/>
<text text-anchor="middle" x="415" y="-29.3" font-family="Times,serif" font-size="14.00">&#45;0.693</text>
</g>
<!-- 2&#45;&gt;2 -->
<g id="edge2" class="edge">
<title>2&#45;&gt;2</title>
<path fill="none" stroke="black" d="M346.19,-40.67C343.21,-51.16 346.48,-61.5 356,-61.5 362.24,-61.5 365.8,-57.05 366.67,-51.02"/>
<polygon fill="black" stroke="black" points="370.12,-50.35 365.81,-40.67 363.15,-50.92 370.12,-50.35"/>
<text text-anchor="middle" x="356" y="-65.3" font-family="Times,serif" font-size="14.00">&#45;0.693</text>
</g>
<!-- 3 -->
<g id="node3" class="node">
<title>3</title>
<ellipse fill="lightblue" stroke="black" cx="120" cy="-25.5" rx="18" ry="18"/>
<text text-anchor="middle" x="120" y="-21.8" font-family="Times,serif" font-size="14.00">a</text>
</g>
<!-- 3&#45;&gt;3 -->
<g id="edge4" class="edge">
<title>3&#45;&gt;3</title>
<path fill="none" stroke="black" d="M111.98,-41.79C110.05,-51.89 112.72,-61.5 120,-61.5 124.66,-61.5 127.43,-57.56 128.32,-52.07"/>
<polygon fill="black" stroke="black" points="131.81,-51.68 128.02,-41.79 124.81,-51.89 131.81,-51.68"/>
<text text-anchor="middle" x="120" y="-65.3" font-family="Times,serif" font-size="14.00">&#45;0.693</text>
</g>
<!-- 1 -->
<g id="node5" class="node">
<title>1</title>
<ellipse fill="lightblue" stroke="black" cx="238" cy="-25.5" rx="18" ry="18"/>
<text text-anchor="middle" x="238" y="-21.8" font-family="Times,serif" font-size="14.00">b</text>
</g>
<!-- 3&#45;&gt;1 -->
<g id="edge3" class="edge">
<title>3&#45;&gt;1</title>
<path fill="none" stroke="black" d="M138.12,-25.5C156.96,-25.5 187.53,-25.5 209.7,-25.5"/>
<polygon fill="black" stroke="black" points="209.81,-29 219.81,-25.5 209.81,-22 209.81,-29"/>
<text text-anchor="middle" x="179" y="-29.3" font-family="Times,serif" font-size="14.00">&#45;0.693</text>
</g>
<!-- s -->
<g id="node4" class="node">
<title>s</title>
<ellipse fill="none" stroke="black" stroke-width="2" cx="21.5" cy="-25.5" rx="21.5" ry="21.5"/>
<text text-anchor="middle" x="21.5" y="-21.8" font-family="Times,serif" font-size="14.00">&lt;s&gt;</text>
</g>
<!-- s&#45;&gt;3 -->
<g id="edge5" class="edge">
<title>s&#45;&gt;3</title>
<path fill="none" stroke="black" d="M43.44,-25.5C57.53,-25.5 76.27,-25.5 91.55,-25.5"/>
<polygon fill="black" stroke="black" points="91.96,-29 101.96,-25.5 91.96,-22 91.96,-29"/>
<text text-anchor="middle" x="72.5" y="-29.3" font-family="Times,serif" font-size="14.00">0.0</text>
</g>
<!-- 1&#45;&gt;2 -->
<g id="edge6" class="edge">
<title>1&#45;&gt;2</title>
<path fill="none" stroke="black" d="M256.12,-25.5C274.96,-25.5 305.53,-25.5 327.7,-25.5"/>
<polygon fill="black" stroke="black" points="327.81,-29 337.81,-25.5 327.81,-22 327.81,-29"/>
<text text-anchor="middle" x="297" y="-29.3" font-family="Times,serif" font-size="14.00">&#45;0.693</text>
</g>
<!-- 1&#45;&gt;1 -->
<g id="edge7" class="edge">
<title>1&#45;&gt;1</title>
<path fill="none" stroke="black" d="M228.19,-40.67C225.21,-51.16 228.48,-61.5 238,-61.5 244.24,-61.5 247.8,-57.05 248.67,-51.02"/>
<polygon fill="black" stroke="black" points="252.12,-50.35 247.81,-40.67 245.15,-50.92 252.12,-50.35"/>
<text text-anchor="middle" x="238" y="-65.3" font-family="Times,serif" font-size="14.00">&#45;0.693</text>
</g>
</g>
</svg>
