<?xml version="1.0" encoding="UTF-8" standalone="no"?>
<!DOCTYPE svg PUBLIC "-//W3C//DTD SVG 1.1//EN"
 "http://www.w3.org/Graphics/SVG/1.1/DTD/svg11.dtd">
<!-- Generated by graphviz version 2.43.0 (0)
 -->
<!-- Title: %3 Pages: 1 -->
<svg width="397pt" height="76pt"
 viewBox="0.00 0.00 397.00 76.00" xmlns="http://www.w3.org/2000/svg" xmlns:xlink="http://www.w3.org/1999/xlink">
<g id="graph0" class="graph" transform="scale(1 1) rotate(0) translate(4 72)">
<title>%3</title>
<polygon fill="white" stroke="transparent" points="-4,4 -4,-72 393,-72 393,4 -4,4"/>
<!-- 2 -->
<g id="node1" class="node">
<title>2</title>
<ellipse fill="transparent" stroke="black" cx="261" cy="-18" rx="18" ry="18"/>
<text text-anchor="middle" x="261" y="-14.3" font-family="Times,serif" font-size="14.00">b</text>
</g>
<!-- e -->
<g id="node2" class="node">
<title>e</title>
<ellipse fill="none" stroke="black" cx="363.5" cy="-41" rx="21.5" ry="21.5"/>
<ellipse fill="none" stroke="black" cx="363.5" cy="-41" rx="25.5" ry="25.5"/>
<text text-anchor="middle" x="363.5" y="-37.3" font-family="Times,serif" font-size="14.00">&lt;/s&gt;</text>
</g>
<!-- 2&#45;&gt;e -->
<g id="edge1" class="edge">
<title>2&#45;&gt;e</title>
<path fill="none" stroke="black" d="M278.6,-21.8C292.08,-24.88 311.54,-29.34 328.33,-33.18"/>
<polygon fill="black" stroke="black" points="327.83,-36.66 338.36,-35.47 329.39,-29.83 327.83,-36.66"/>
<text text-anchor="middle" x="308.5" y="-33.8" font-family="Times,serif" font-size="14.00">0.0</text>
</g>
<!-- s -->
<g id="node3" class="node">
<title>s</title>
<ellipse fill="none" stroke="black" stroke-width="2" cx="21.5" cy="-41" rx="21.5" ry="21.5"/>
<text text-anchor="middle" x="21.5" y="-37.3" font-family="Times,serif" font-size="14.00">&lt;s&gt;</text>
</g>
<!-- s&#45;&gt;e -->
<g id="edge3" class="edge">
<title>s&#45;&gt;e</title>
<path fill="none" stroke="black" d="M42.33,-46.55C48.28,-47.97 54.86,-49.29 61,-50 81.31,-52.34 86.56,-50.05 107,-50 201.67,-49.78 225.76,-58.02 320,-49 322.71,-48.74 325.5,-48.39 328.3,-47.99"/>
<polygon fill="black" stroke="black" points="329.04,-51.42 338.34,-46.33 327.9,-44.51 329.04,-51.42"/>
<text text-anchor="middle" x="202" y="-56.8" font-family="Times,serif" font-size="14.00">&#45;0.693</text>
</g>
<!-- 1 -->
<g id="node4" class="node">
<title>1</title>
<ellipse fill="lightblue" stroke="black" cx="143" cy="-18" rx="18" ry="18"/>
<text text-anchor="middle" x="143" y="-14.3" font-family="Times,serif" font-size="14.00">a</text>
</g>
<!-- s&#45;&gt;1 -->
<g id="edge2" class="edge">
<title>s&#45;&gt;1</title>
<path fill="none" stroke="black" d="M42.77,-37.1C62.69,-33.27 93.19,-27.39 115.12,-23.17"/>
<polygon fill="black" stroke="black" points="115.95,-26.58 125.11,-21.25 114.63,-19.7 115.95,-26.58"/>
<text text-anchor="middle" x="84" y="-36.8" font-family="Times,serif" font-size="14.00">&#45;0.693</text>
</g>
<!-- 1&#45;&gt;2 -->
<g id="edge4" class="edge">
<title>1&#45;&gt;2</title>
<path fill="none" stroke="black" d="M161.12,-18C179.96,-18 210.53,-18 232.7,-18"/>
<polygon fill="black" stroke="black" points="232.81,-21.5 242.81,-18 232.81,-14.5 232.81,-21.5"/>
<text text-anchor="middle" x="202" y="-21.8" font-family="Times,serif" font-size="14.00">0.0</text>
</g>
</g>
</svg>
